<svg width="132" height="132" viewBox="0 0 132 132" fill="none" xmlns="http://www.w3.org/2000/svg">
<path fill-rule="evenodd" clip-rule="evenodd" d="M5.81742 62.7435C6.70818 43.6494 11.3662 22.9715 26.128 11.6976C40.4231 0.780163 59.8968 3.59935 76.78 8.54793C90.6871 12.6242 100.387 23.9718 109.128 36.0254C117.471 47.5308 124.722 59.9869 124.633 74.536C124.535 90.622 120.519 107.737 108.625 117.961C96.7525 128.168 80.3603 126.741 65.1558 125.668C49.3427 124.551 32.5753 123.596 21.4578 111.807C9.48175 99.1073 4.97877 80.7208 5.81742 62.7435Z" fill="#407BFF" fill-opacity="0.14"/>
<path d="M91.7777 88.7036C93.8297 90.9299 88.215 95.5047 85.5669 92.9864C82.4502 90.0259 89.7984 86.5563 91.7777 88.7036Z" fill="#FFC9B0"/>
<path d="M87.4688 94.1197C87.0447 94.1244 86.6246 94.0491 86.2373 93.8992C85.85 93.7493 85.5048 93.5282 85.2256 93.2513C84.8317 92.9218 84.5547 92.5015 84.4273 92.0398C84.2999 91.5782 84.3275 91.0946 84.5067 90.6461C85.121 89.0909 87.3095 87.9699 89.0567 87.7094C90.4217 87.5041 91.5001 87.7725 92.1325 88.4593C93.3656 89.7975 92.3464 91.7276 90.7038 92.9434C89.8144 93.6478 88.6714 94.0634 87.4688 94.1197V94.1197ZM89.8985 88.4199C89.6666 88.4218 89.4353 88.4403 89.2069 88.4751C87.487 88.7356 85.8035 89.7935 85.3712 90.8908C85.2495 91.2055 85.2345 91.544 85.3281 91.8659C85.4216 92.1878 85.6198 92.4796 85.899 92.7066C87.0183 93.7723 88.8156 93.2868 90.1078 92.3316C91.4 91.3763 92.2781 89.8764 91.4182 88.937C91.2256 88.7576 90.9891 88.6181 90.7261 88.5286C90.4631 88.4391 90.1803 88.4019 89.8985 88.4199V88.4199Z" fill="#093F68"/>
<path d="M62.3755 30.972C62.3755 30.972 60.2052 27.4826 58.458 27.8142C56.7108 28.1458 57.3978 29.1721 57.7709 29.3931C58.144 29.6141 60.8922 29.7878 61.4109 31.6785L62.3755 30.972Z" fill="#0F5BEE"/>
<path d="M61.4246 32.0573C61.3763 32.063 61.3273 32.063 61.279 32.0573C61.2057 32.0365 61.1396 31.9999 61.0871 31.9508C61.0346 31.9018 60.9973 31.842 60.9787 31.777C60.6283 30.5179 59.0267 30.135 58.1668 29.9297C57.9391 29.8905 57.7197 29.8213 57.5161 29.7245C57.2823 29.5794 57.0997 29.3807 56.9888 29.1506C56.8779 28.9205 56.8431 28.6682 56.8882 28.4219C56.9656 28.0666 57.2841 27.6088 58.3624 27.4114C60.3872 27.0404 62.5348 30.3955 62.7759 30.7784C62.8254 30.8584 62.8416 30.9508 62.8217 31.04C62.8018 31.1291 62.7471 31.2096 62.6667 31.2678L61.7158 31.9744C61.6327 32.0304 61.5298 32.0597 61.4246 32.0573V32.0573ZM58.6946 28.1772H58.5581C58.1031 28.2601 57.821 28.4022 57.7846 28.5719C57.781 28.6613 57.8013 28.7503 57.844 28.8317C57.8866 28.9132 57.9504 28.9851 58.0303 29.0416C58.0667 29.0416 58.2578 29.1048 58.4125 29.1403C59.2588 29.3455 60.915 29.7403 61.6339 30.9915L61.7977 30.8731C60.965 29.6455 59.6046 28.1772 58.69 28.1772H58.6946Z" fill="#093F68"/>
<path d="M61.7249 73.5269H71.7576C73.2807 73.5269 74.7889 73.7871 76.196 74.2927C77.6031 74.7984 78.8817 75.5395 79.9586 76.4738C81.0356 77.4081 81.8899 78.5173 82.4728 79.738C83.0556 80.9587 83.3556 82.267 83.3556 83.5883V101.576H50.127V83.5844C50.1282 80.9166 51.3506 78.3584 53.5255 76.4724C55.7004 74.5864 58.6497 73.5269 61.7249 73.5269V73.5269Z" fill="#0F5BEE"/>
<path d="M83.3738 101.97H50.127C50.0063 101.97 49.8906 101.929 49.8053 101.855C49.7199 101.781 49.672 101.68 49.672 101.576V83.5841C49.6738 82.2099 49.9876 80.8495 50.5954 79.5806C51.2032 78.3116 52.0932 77.1589 53.2145 76.1883C54.3359 75.2177 55.6666 74.4483 57.1307 73.9238C58.5948 73.3994 60.1637 73.1303 61.7477 73.1318H71.7577C74.9528 73.1339 78.0164 74.2357 80.2761 76.1953C82.5359 78.1549 83.807 80.8123 83.8106 83.5841V101.576C83.8107 101.678 83.7653 101.776 83.6839 101.849C83.6024 101.923 83.4913 101.966 83.3738 101.97ZM50.582 101.181H82.9188V83.5841C82.9152 81.0189 81.7374 78.56 79.6444 76.7479C77.5514 74.9359 74.7146 73.9192 71.7577 73.9213H61.7477C58.7939 73.9234 55.9618 74.942 53.8727 76.7535C51.7837 78.5651 50.6084 81.0216 50.6047 83.5841L50.582 101.181Z" fill="#093F68"/>
<path d="M77.3178 93.7839C77.1971 93.7839 77.0814 93.7423 76.9961 93.6683C76.9107 93.5943 76.8628 93.4939 76.8628 93.3892V79.341C76.8628 79.2363 76.9107 79.1359 76.9961 79.0619C77.0814 78.9879 77.1971 78.9463 77.3178 78.9463C77.4385 78.9463 77.5542 78.9879 77.6395 79.0619C77.7249 79.1359 77.7728 79.2363 77.7728 79.341V93.3773C77.7746 93.4302 77.7642 93.4828 77.7422 93.532C77.7201 93.5813 77.6869 93.6262 77.6444 93.6641C77.602 93.702 77.5512 93.7322 77.4951 93.7528C77.439 93.7733 77.3787 93.7839 77.3178 93.7839V93.7839Z" fill="#093F68"/>
<path d="M57.1431 101.97C57.0224 101.97 56.9067 101.929 56.8214 101.855C56.736 101.781 56.6881 101.68 56.6881 101.576V79.341C56.6881 79.2363 56.736 79.1359 56.8214 79.0619C56.9067 78.9879 57.0224 78.9463 57.1431 78.9463C57.2638 78.9463 57.3795 78.9879 57.4648 79.0619C57.5502 79.1359 57.5981 79.2363 57.5981 79.341V101.564C57.5999 101.617 57.5895 101.669 57.5675 101.719C57.5454 101.768 57.5122 101.813 57.4698 101.851C57.4273 101.889 57.3766 101.919 57.3204 101.939C57.2643 101.96 57.204 101.97 57.1431 101.97V101.97Z" fill="#093F68"/>
<path d="M73.2273 84.2041H60.2735L57.1431 86.829V101.576H76.3577V86.829L73.2273 84.2041Z" fill="#093F68"/>
<path d="M76.3578 101.971H57.1431C57.0224 101.971 56.9067 101.929 56.8214 101.855C56.7361 101.781 56.6881 101.681 56.6881 101.576V86.8409C56.6878 86.788 56.6997 86.7356 56.7231 86.6868C56.7466 86.638 56.7811 86.5937 56.8246 86.5567L59.9596 83.9318C60.0439 83.8613 60.1564 83.8217 60.2735 83.8213H73.2274C73.3445 83.8217 73.457 83.8613 73.5413 83.9318L76.6763 86.5567C76.7198 86.5937 76.7543 86.638 76.7778 86.6868C76.8012 86.7356 76.8131 86.788 76.8128 86.8409V101.588C76.8092 101.69 76.7597 101.788 76.6748 101.859C76.5898 101.931 76.4761 101.971 76.3578 101.971ZM57.5981 101.181H75.9028V86.9988L73.0408 84.5989H60.4601L57.5981 86.9988V101.181Z" fill="#093F68"/>
<path d="M60.2735 85.2932C60.1528 85.2932 60.0371 85.2516 59.9517 85.1776C59.8664 85.1036 59.8185 85.0032 59.8185 84.8985V73.5266C59.8185 73.4219 59.8664 73.3215 59.9517 73.2474C60.0371 73.1734 60.1528 73.1318 60.2735 73.1318C60.3942 73.1318 60.5099 73.1734 60.5952 73.2474C60.6805 73.3215 60.7285 73.4219 60.7285 73.5266V84.8985C60.7285 85.0032 60.6805 85.1036 60.5952 85.1776C60.5099 85.2516 60.3942 85.2932 60.2735 85.2932Z" fill="#093F68"/>
<path d="M73.3001 85.2932C73.1794 85.2932 73.0637 85.2516 72.9784 85.1776C72.893 85.1036 72.8451 85.0032 72.8451 84.8985V73.5266C72.8451 73.4219 72.893 73.3215 72.9784 73.2474C73.0637 73.1734 73.1794 73.1318 73.3001 73.1318C73.4208 73.1318 73.5365 73.1734 73.6218 73.2474C73.7072 73.3215 73.7551 73.4219 73.7551 73.5266V84.8985C73.7551 85.0032 73.7072 85.1036 73.6218 85.1776C73.5365 85.2516 73.4208 85.2932 73.3001 85.2932Z" fill="#093F68"/>
<path d="M47.6426 70.3099C48.134 71.2533 49.1851 71.5652 51.0142 71.4941C54.9454 71.3362 58.9221 71.4941 62.8442 71.4941H84.5522C85.8444 71.4941 86.5087 70.9455 86.5815 69.8126C86.9046 64.9299 86.5815 60.1182 86.213 55.2513C85.9036 50.8699 85.2165 46.3779 82.6731 42.4978C77.7636 34.9981 64.6141 31.5798 58.9221 37.994C58.9221 37.994 54.8589 36.8099 51.0051 40.9387C47.8474 44.3135 47.5471 48.7976 47.4925 52.9461L47.2877 68.3679C47.2493 69.0296 47.3702 69.691 47.6426 70.3099V70.3099Z" fill="#725858"/>
<path d="M50.4682 71.9007C49.1487 71.9007 47.8292 71.6599 47.2104 70.4718C46.9094 69.7971 46.7791 69.0743 46.8282 68.3521L47.033 52.9264C47.0876 48.6239 47.4152 44.132 50.6457 40.69C54.0718 37.023 57.6709 37.3467 58.7447 37.5322C60.9696 35.1639 64.3776 34.0073 68.377 34.2442C74.2374 34.5994 80.1388 37.8282 83.0644 42.2886C85.7125 46.3266 86.3723 51.087 86.6635 55.2118C87.0047 59.988 87.3551 64.918 87.032 69.8165C86.941 71.1586 86.0856 71.8652 84.5477 71.8691H62.8397C61.5611 71.8691 60.2826 71.8691 58.9995 71.8375C56.3741 71.8059 53.6623 71.7744 51.0142 71.8809C50.8277 71.8928 50.6548 71.9007 50.4682 71.9007ZM57.4934 38.2151C56.0784 38.2151 53.6987 38.6651 51.3509 41.1755C48.3024 44.432 47.9976 48.7739 47.943 52.9382L47.7382 68.36C47.6941 68.968 47.798 69.5772 48.0431 70.1481V70.1481C48.3252 70.6928 48.8757 71.1823 50.9733 71.0994C53.6487 70.9928 56.3741 71.0244 59.0131 71.056C60.2917 71.056 61.5657 71.0875 62.8397 71.0875H84.5477C85.6033 71.0875 86.0629 70.6928 86.122 69.7771C86.4451 64.922 86.122 60.2366 85.758 55.271C85.4532 51.0278 84.8207 46.5871 82.2727 42.6833C79.4927 38.444 73.8825 35.3731 68.3133 35.0376C64.5141 34.8126 61.3063 35.9415 59.2816 38.223C59.2239 38.2881 59.1443 38.3361 59.0538 38.3602C58.9633 38.3842 58.8663 38.3832 58.7765 38.3572C58.3591 38.2557 57.9268 38.2079 57.4934 38.2151Z" fill="#093F68"/>
<path d="M63.9953 73.527H69.3416V76.1835C69.3416 76.7069 69.1019 77.2089 68.6752 77.579C68.2486 77.9491 67.6699 78.1571 67.0666 78.1571H66.2612C65.6578 78.1571 65.0792 77.9491 64.6525 77.579C64.2259 77.2089 63.9862 76.7069 63.9862 76.1835V73.5151L63.9953 73.527Z" fill="#FFC9B0"/>
<path d="M67.0711 78.5515H66.2658C65.5417 78.5515 64.8473 78.302 64.3354 77.8578C63.8234 77.4137 63.5358 76.8113 63.5358 76.1832V73.5148C63.5358 73.4102 63.5837 73.3098 63.669 73.2357C63.7544 73.1617 63.8701 73.1201 63.9908 73.1201H69.337C69.4577 73.1201 69.5734 73.1617 69.6588 73.2357C69.7441 73.3098 69.792 73.4102 69.792 73.5148V76.1832C69.792 76.8099 69.5056 77.4111 68.9956 77.855C68.4856 78.299 67.7936 78.5494 67.0711 78.5515V78.5515ZM64.4503 73.9135V76.1832C64.4503 76.6019 64.6421 77.0035 64.9834 77.2996C65.3247 77.5957 65.7876 77.762 66.2703 77.762H67.0757C67.5584 77.762 68.0213 77.5957 68.3626 77.2996C68.7039 77.0035 68.8957 76.6019 68.8957 76.1832V73.9096L64.4503 73.9135Z" fill="#093F68"/>
<path d="M51.3873 65.3599C54.257 65.3599 56.5834 63.621 56.5834 61.4759C56.5834 59.3308 54.257 57.5918 51.3873 57.5918C48.5175 57.5918 46.1912 59.3308 46.1912 61.4759C46.1912 63.621 48.5175 65.3599 51.3873 65.3599Z" fill="#FFC9B0"/>
<path d="M51.3873 65.7548C48.2706 65.7548 45.7362 63.8365 45.7362 61.4761C45.7362 59.1156 48.2706 57.1973 51.3873 57.1973C54.5041 57.1973 57.0384 59.1156 57.0384 61.4761C57.0384 63.8365 54.4995 65.7548 51.3873 65.7548ZM51.3873 57.9867C48.7711 57.9867 46.6462 59.5656 46.6462 61.4761C46.6462 63.3865 48.7711 64.9654 51.3873 64.9654C54.0036 64.9654 56.1284 63.3865 56.1284 61.4761C56.1284 59.5656 54.0127 57.9867 51.3873 57.9867Z" fill="#093F68"/>
<path d="M81.6721 65.3599C84.5418 65.3599 86.8682 63.621 86.8682 61.4759C86.8682 59.3308 84.5418 57.5918 81.6721 57.5918C78.8023 57.5918 76.476 59.3308 76.476 61.4759C76.476 63.621 78.8023 65.3599 81.6721 65.3599Z" fill="#FFC9B0"/>
<path d="M81.6721 65.7548C78.5599 65.7548 76.0255 63.8365 76.0255 61.4761C76.0255 59.1156 78.5826 57.1973 81.6721 57.1973C84.7615 57.1973 87.3232 59.1156 87.3232 61.4761C87.3232 63.8365 84.7888 65.7548 81.6721 65.7548ZM81.6721 57.9867C79.0604 57.9867 76.9355 59.5656 76.9355 61.4761C76.9355 63.3865 79.0604 64.9654 81.6721 64.9654C84.2838 64.9654 86.4132 63.3865 86.4132 61.4761C86.4132 59.5656 84.2883 57.9867 81.6721 57.9867Z" fill="#093F68"/>
<path d="M76.1985 49.9542L71.1298 44.3018C71.1298 44.3018 69.9878 47.7832 69.2871 49.9384L61.2927 49.9187L59.409 44.8702L57.1977 49.9068H51.0006V60.5643C51 62.3493 51.4048 64.117 52.1918 65.7663C52.9788 67.4156 54.1326 68.9143 55.5874 70.1766C57.0421 71.439 58.7693 72.4404 60.6702 73.1237C62.5712 73.8069 64.6086 74.1585 66.6663 74.1585V74.1585C70.8223 74.1585 74.808 72.7263 77.7468 70.1769C80.6855 67.6275 82.3365 64.1697 82.3365 60.5643V49.97L76.1985 49.9542Z" fill="#FFC9B0"/>
<path d="M66.6662 74.5295C62.3914 74.5253 58.2932 73.05 55.2709 70.4273C52.2486 67.8047 50.5491 64.249 50.5455 60.5405V49.883C50.5455 49.7783 50.5935 49.6779 50.6788 49.6039C50.7641 49.5299 50.8799 49.4883 51.0005 49.4883H56.8837L58.9903 44.7042C59.0251 44.6255 59.0881 44.5585 59.1699 44.513C59.2518 44.4676 59.3483 44.446 59.4453 44.4516C59.5389 44.4541 59.6294 44.4816 59.7043 44.5304C59.7792 44.5791 59.8349 44.6467 59.8639 44.724L61.6475 49.5001L68.9594 49.5199C69.6464 47.3686 70.6884 44.2108 70.6884 44.2108C70.7109 44.1399 70.7558 44.0758 70.8181 44.0259C70.8804 43.9759 70.9575 43.942 71.0408 43.9281C71.124 43.9141 71.2102 43.9206 71.2894 43.9469C71.3686 43.9731 71.4378 44.0181 71.4892 44.0766L76.4214 49.5791H82.3364C82.4571 49.5791 82.5728 49.6206 82.6581 49.6947C82.7434 49.7687 82.7914 49.8691 82.7914 49.9738V60.5444C82.7854 64.2526 81.0844 67.8073 78.0615 70.429C75.0386 73.0506 70.9406 74.5253 66.6662 74.5295V74.5295ZM51.4555 50.2856V60.5484C51.4206 62.3007 51.7883 64.0415 52.5371 65.6693C53.2859 67.297 54.401 68.7791 55.8171 70.0291C57.2332 71.279 58.922 72.2718 60.7851 72.9495C62.6482 73.6271 64.6482 73.9762 66.6685 73.9762C68.6887 73.9762 70.6887 73.6271 72.5518 72.9495C74.4149 72.2718 76.1037 71.279 77.5198 70.0291C78.936 68.7791 80.051 67.297 80.7998 65.6693C81.5486 64.0415 81.9163 62.3007 81.8814 60.5484V50.3646H76.1939C76.1255 50.3643 76.0581 50.3507 75.9967 50.3247C75.9353 50.2987 75.8814 50.2611 75.839 50.2146L71.3026 45.1582C70.9295 46.3029 70.2061 48.5094 69.7056 50.0448C69.6781 50.1302 69.6182 50.2051 69.5357 50.2573C69.4531 50.3096 69.3527 50.3363 69.2506 50.333L61.2926 50.3132C61.1975 50.3124 61.105 50.2856 61.0283 50.2367C60.9516 50.1879 60.8944 50.1194 60.8649 50.0409L59.3771 46.0581L57.6208 50.0488C57.5878 50.123 57.5297 50.1868 57.4542 50.2318C57.3787 50.2769 57.2893 50.3012 57.1976 50.3014L51.4555 50.2856Z" fill="#093F68"/>
<path d="M59.5318 64.3969C58.4284 64.3976 57.3494 64.1145 56.4314 63.5832C55.5135 63.0519 54.7978 62.2964 54.3749 61.4122C53.952 60.528 53.8409 59.5549 54.0556 58.6159C54.2703 57.6769 54.8013 56.8142 55.5812 56.1371C56.3612 55.4599 57.3551 54.9986 58.4373 54.8115C59.5195 54.6245 60.6414 54.7201 61.6609 55.0863C62.6805 55.4524 63.552 56.0727 64.1651 56.8686C64.7783 57.6645 65.1056 58.6003 65.1056 59.5576C65.1044 60.84 64.5169 62.0697 63.472 62.9769C62.4271 63.8841 61.0101 64.3948 59.5318 64.3969ZM59.5318 55.5117C58.6081 55.5109 57.7049 55.7478 56.9365 56.1925C56.1681 56.6372 55.5691 57.2697 55.2152 58.0099C54.8613 58.75 54.7685 59.5647 54.9485 60.3506C55.1284 61.1366 55.5731 61.8586 56.2263 62.4252C56.8794 62.9918 57.7117 63.3776 58.6177 63.5337C59.5236 63.6899 60.4627 63.6093 61.3159 63.3023C62.1691 62.9953 62.8981 62.4756 63.4107 61.809C63.9233 61.1424 64.1965 60.3589 64.1956 59.5576C64.1932 58.4852 63.701 57.4573 62.8269 56.699C61.9528 55.9407 60.768 55.5137 59.5318 55.5117V55.5117Z" fill="#093F68"/>
<path d="M73.8051 64.3969C72.7017 64.3976 71.6227 64.1145 70.7048 63.5832C69.7868 63.0519 69.0711 62.2964 68.6482 61.4122C68.2253 60.528 68.1142 59.5549 68.3289 58.6159C68.5437 57.6769 69.0746 56.8142 69.8545 56.1371C70.6345 55.4599 71.6284 54.9986 72.7106 54.8115C73.7929 54.6245 74.9147 54.7201 75.9343 55.0863C76.9538 55.4524 77.8253 56.0727 78.4385 56.8686C79.0516 57.6645 79.3789 58.6003 79.3789 59.5576C79.3777 60.84 78.7902 62.0697 77.7453 62.9769C76.7004 63.8841 75.2834 64.3948 73.8051 64.3969V64.3969ZM73.8051 55.5117C72.8815 55.5109 71.9783 55.7478 71.2099 56.1925C70.4415 56.6372 69.8424 57.2697 69.4885 58.0099C69.1346 58.75 69.0418 59.5647 69.2218 60.3506C69.4018 61.1366 69.8465 61.8586 70.4996 62.4252C71.1528 62.9918 71.985 63.3776 72.891 63.5337C73.797 63.6899 74.736 63.6093 75.5892 63.3023C76.4424 62.9953 77.1714 62.4756 77.684 61.809C78.1966 61.1424 78.4698 60.3589 78.4689 59.5576C78.4677 58.4848 77.9759 57.4564 77.1016 56.6978C76.2272 55.9393 75.0417 55.5127 73.8051 55.5117V55.5117Z" fill="#093F68"/>
<path d="M60.0141 61.0813C60.8157 61.0813 61.4655 60.5176 61.4655 59.8222C61.4655 59.1267 60.8157 58.563 60.0141 58.563C59.2125 58.563 58.5626 59.1267 58.5626 59.8222C58.5626 60.5176 59.2125 61.0813 60.0141 61.0813Z" fill="#093F68"/>
<path d="M72.927 60.8167C73.7287 60.8167 74.3785 60.2529 74.3785 59.5575C74.3785 58.8621 73.7287 58.2983 72.927 58.2983C72.1254 58.2983 71.4756 58.8621 71.4756 59.5575C71.4756 60.2529 72.1254 60.8167 72.927 60.8167Z" fill="#093F68"/>
<path d="M66.4068 64.1247C65.9328 64.1217 65.4598 64.0874 64.9918 64.0221C64.932 64.013 64.8749 63.9938 64.8237 63.9656C64.7725 63.9374 64.7282 63.9007 64.6934 63.8576C64.6585 63.8145 64.6338 63.7659 64.6206 63.7146C64.6074 63.6632 64.606 63.6101 64.6164 63.5583C64.6269 63.5064 64.649 63.4569 64.6815 63.4125C64.714 63.3681 64.7563 63.3296 64.806 63.2994C64.8556 63.2692 64.9117 63.2477 64.9709 63.2362C65.0301 63.2248 65.0913 63.2236 65.151 63.2326C65.8612 63.3375 66.5861 63.3442 67.2986 63.2524C67.3851 62.8892 66.8436 61.5432 66.0747 60.2801C66.0186 60.1869 66.0074 60.0782 66.0437 59.9779C66.08 59.8776 66.1607 59.7939 66.2681 59.7453C66.3755 59.6966 66.5008 59.6869 66.6164 59.7184C66.732 59.7498 66.8285 59.8198 66.8846 59.913C67.3896 60.7577 68.5271 62.8103 68.1131 63.6155C68.0662 63.7122 67.9942 63.7982 67.9026 63.8666C67.8111 63.9351 67.7024 63.9843 67.5853 64.0102C67.1993 64.0899 66.8036 64.1283 66.4068 64.1247Z" fill="#093F68"/>
<path d="M55.4868 55.101C55.2455 55.1141 55.008 55.0435 54.8267 54.9047C54.6454 54.7659 54.535 54.5703 54.52 54.3609C54.5049 54.1516 54.5863 53.9456 54.7463 53.7883C54.9063 53.631 55.1317 53.5352 55.3731 53.5221L62.239 52.7801C62.4804 52.7539 62.7238 52.812 62.9158 52.9415C63.1078 53.0711 63.2326 53.2615 63.2628 53.4708C63.293 53.6802 63.226 53.8914 63.0767 54.058C62.9274 54.2245 62.7079 54.3328 62.4665 54.359L55.6006 55.101H55.4868Z" fill="#093F68"/>
<path d="M76.9811 55.2629C76.9266 55.2667 76.8718 55.2667 76.8173 55.2629L69.9923 54.1853C69.7545 54.1476 69.5438 54.0295 69.4064 53.857C69.2691 53.6846 69.2163 53.4718 69.2597 53.2656C69.3032 53.0593 69.4393 52.8765 69.6381 52.7573C69.8369 52.6382 70.0821 52.5924 70.3199 52.6301L77.1449 53.7116C77.3862 53.7299 77.6093 53.8307 77.765 53.9917C77.9207 54.1527 77.9964 54.3608 77.9752 54.5701C77.9541 54.7795 77.838 54.973 77.6524 55.1081C77.4668 55.2432 77.227 55.3088 76.9856 55.2905L76.9811 55.2629Z" fill="#093F68"/>
<path d="M67.5353 69.0783C66.2027 69.0706 64.8852 68.8335 63.659 68.3809C62.4328 67.9283 61.3223 67.2691 60.3918 66.4416C60.3188 66.3627 60.2835 66.2626 60.2932 66.1618C60.3028 66.0611 60.3567 65.9674 60.4436 65.9001C60.5306 65.8327 60.644 65.7969 60.7605 65.8C60.877 65.8031 60.9876 65.8448 61.0697 65.9166C61.2426 66.0824 65.374 69.9862 71.7668 67.4402C71.8211 67.4185 71.8799 67.4062 71.9398 67.4041C71.9996 67.4021 72.0593 67.4102 72.1155 67.4282C72.1717 67.4462 72.2233 67.4735 72.2673 67.5088C72.3113 67.544 72.3468 67.5865 72.3719 67.6336C72.397 67.6808 72.4111 67.7318 72.4135 67.7837C72.4159 67.8356 72.4065 67.8874 72.3858 67.9362C72.3651 67.9849 72.3335 68.0297 72.2929 68.0678C72.2522 68.106 72.2033 68.1368 72.149 68.1586C70.7064 68.7525 69.1319 69.0663 67.5353 69.0783V69.0783Z" fill="#093F68"/>
<path d="M68.6818 59.3601C68.5891 59.3599 68.4986 59.3351 68.4225 59.289C67.9098 58.9629 67.2906 58.787 66.6548 58.787C66.019 58.787 65.3998 58.9629 64.8871 59.289C64.8398 59.3212 64.7855 59.3448 64.7275 59.3587C64.6695 59.3725 64.6089 59.3762 64.5493 59.3696C64.4896 59.363 64.4321 59.3462 64.3799 59.3202C64.3278 59.2941 64.2821 59.2594 64.2456 59.218C64.1717 59.1357 64.1384 59.0314 64.1529 58.9278C64.1673 58.8243 64.2285 58.7299 64.3229 58.6654C64.9942 58.2406 65.8035 58.0117 66.6343 58.0117C67.4652 58.0117 68.2745 58.2406 68.9457 58.6654C69.0446 58.7251 69.112 58.8164 69.1333 58.9193C69.1547 59.0221 69.1281 59.1281 69.0595 59.214C69.0143 59.2625 68.9565 59.301 68.8909 59.3264C68.8253 59.3518 68.7536 59.3633 68.6818 59.3601V59.3601Z" fill="#093F68"/>
<path d="M54.3767 58.6973C54.3358 58.7011 54.2946 58.7011 54.2538 58.6973L51.2645 57.9868C51.2023 57.977 51.1431 57.9561 51.0907 57.9254C51.0383 57.8947 50.9939 57.8549 50.9602 57.8085C50.9265 57.762 50.9044 57.71 50.8952 57.6558C50.886 57.6015 50.89 57.5462 50.9068 57.4933C50.9236 57.4404 50.9529 57.3912 50.9929 57.3487C51.0329 57.3062 51.0827 57.2714 51.139 57.2466C51.1953 57.2217 51.257 57.2073 51.3202 57.2042C51.3833 57.2012 51.4464 57.2096 51.5056 57.2289L54.495 57.9355C54.6156 57.9491 54.7251 58.0037 54.7994 58.0873C54.8736 58.171 54.9065 58.2768 54.8908 58.3815C54.8751 58.4862 54.8121 58.5812 54.7157 58.6456C54.6193 58.71 54.4973 58.7385 54.3767 58.7249V58.6973Z" fill="#093F68"/>
<path d="M79.1514 58.6968C79.0917 58.7036 79.031 58.7 78.9728 58.6864C78.9146 58.6728 78.8601 58.6494 78.8123 58.6175C78.7159 58.5531 78.6529 58.4581 78.6373 58.3534C78.6216 58.2487 78.6545 58.1429 78.7287 58.0593C78.8029 57.9756 78.9124 57.921 79.0331 57.9074L82.0225 57.2008C82.0819 57.1809 82.1455 57.172 82.2092 57.1748C82.2729 57.1776 82.3351 57.1919 82.392 57.2169C82.4489 57.2419 82.499 57.277 82.5393 57.3199C82.5795 57.3627 82.6089 57.4125 82.6256 57.4659C82.6422 57.5192 82.6458 57.575 82.636 57.6297C82.6262 57.6843 82.6033 57.7366 82.5687 57.783C82.5342 57.8295 82.4888 57.8691 82.4354 57.8994C82.3821 57.9297 82.322 57.9499 82.2591 57.9587L79.2697 58.6692C79.2317 58.6826 79.192 58.6919 79.1514 58.6968Z" fill="#093F68"/>
<path d="M52.6477 42.4107C55.0819 41.8581 60.3827 39.0122 64.2957 38.6411C68.2087 38.2701 77.427 39.1937 80.1797 37.9069C82.9325 36.6201 83.7788 32.0295 79.7566 28.7218C75.7344 25.414 64.2866 28.9073 56.8837 32.669C49.4809 36.4307 46.719 37.1688 46.8237 39.7424C46.9283 42.316 50.1998 42.9594 52.6477 42.4107Z" fill="#0F5BEE"/>
<path d="M50.9869 42.9871C49.8424 43.0141 48.7171 42.7283 47.7701 42.17C47.335 41.8906 46.9807 41.5273 46.7351 41.1088C46.4895 40.6902 46.3594 40.2279 46.355 39.7583C46.2595 37.4334 48.2114 36.4781 52.9343 34.173C54.0172 33.6401 55.2412 33.0401 56.638 32.3336C63.6314 28.7811 75.6388 24.8062 80.0523 28.4377C82.1999 30.1981 83.2373 32.4993 82.887 34.7532C82.6458 36.3321 81.7085 37.6465 80.3799 38.2662C78.5235 39.1346 74.2283 39.0557 70.0787 38.9925C68.1634 38.9209 66.2451 38.9394 64.3321 39.0478C61.9479 39.2728 58.9403 40.4806 56.5243 41.4516C55.3071 41.9848 54.0446 42.4361 52.7478 42.8016C52.1725 42.9291 51.5806 42.9915 50.9869 42.9871V42.9871ZM74.8608 27.7903C73.1135 27.8216 71.3768 28.0336 69.6874 28.4219C65.2731 29.4533 61.0386 30.9947 57.0976 33.0046C55.6962 33.719 54.4631 34.319 53.3802 34.8519C48.8757 37.0623 47.1877 37.8952 47.265 39.7307C47.2648 40.0823 47.3598 40.4291 47.5424 40.7432C47.725 41.0572 47.99 41.3296 48.3161 41.5385C49.3171 42.1858 50.9687 42.3792 52.5203 42.0279C53.7693 41.6715 54.986 41.2348 56.1603 40.7214C58.64 39.7267 61.7204 38.4873 64.2502 38.2505C66.2024 38.1368 68.1604 38.117 70.1151 38.1912C73.9599 38.2544 78.3051 38.3294 79.9659 37.5597C81.0397 37.0584 81.7859 35.9808 82.0043 34.6387C82.3091 32.6651 81.3764 30.5968 79.4472 29.01C78.3324 28.11 76.6626 27.7903 74.8608 27.7903V27.7903Z" fill="#093F68"/>
<path d="M56.3969 101.603C54.7953 102.874 51.2281 103.806 49.4536 101.209C47.6791 98.6113 44.1346 87.4643 44.1346 87.4643L48.2888 84.2197L56.5789 96.0259C57.7209 97.6995 57.9985 100.336 56.3969 101.603Z" fill="#FFC9B0"/>
<path d="M52.7341 103.257C52.5057 103.257 52.2777 103.242 52.0516 103.214C51.4253 103.13 50.8297 102.922 50.3106 102.606C49.7916 102.291 49.3629 101.876 49.0577 101.394C47.2741 98.7655 43.8434 88.0093 43.6978 87.5554C43.6759 87.4854 43.6766 87.4115 43.6999 87.3419C43.7232 87.2723 43.7681 87.2096 43.8298 87.1606L47.9839 83.916C48.0335 83.8774 48.0923 83.8486 48.1561 83.8319C48.2199 83.8151 48.2872 83.8107 48.3531 83.819C48.4191 83.8273 48.4822 83.8481 48.5379 83.8798C48.5936 83.9116 48.6406 83.9536 48.6755 84.0029L56.9702 95.809C58.2169 97.6563 58.4671 100.502 56.7063 101.9C55.609 102.745 54.2016 103.227 52.7341 103.257V103.257ZM44.6488 87.579C45.172 89.1974 48.2615 98.6589 49.8449 101C50.0796 101.381 50.4144 101.71 50.8221 101.958C51.2299 102.207 51.6993 102.37 52.1927 102.432C52.8969 102.489 53.6072 102.419 54.2789 102.227C54.9506 102.035 55.5694 101.725 56.0966 101.315C57.4616 100.218 57.2613 97.7905 56.1921 96.2116L48.1887 84.816L44.6488 87.579Z" fill="#093F68"/>
<path d="M44.4467 77.0903L40.8816 78.2295L42.5061 82.0557L46.0712 80.9165L44.4467 77.0903Z" fill="#0F5BEE"/>
<path d="M42.5103 82.4475C42.4173 82.4478 42.3265 82.4233 42.25 82.3774C42.1735 82.3316 42.1151 82.2665 42.0826 82.1909L40.4582 78.3621C40.4172 78.2637 40.423 78.1552 40.4742 78.0605C40.5254 77.9657 40.6178 77.8925 40.7312 77.8569L44.2939 76.7161C44.4046 76.6767 44.5289 76.6767 44.6397 76.7161C44.7492 76.7597 44.8342 76.8392 44.8763 76.9372L46.5006 80.766C46.5418 80.8639 46.5367 80.972 46.4864 81.0666C46.4361 81.1613 46.3447 81.2348 46.2322 81.2712L42.6695 82.412C42.6194 82.4321 42.5654 82.4441 42.5103 82.4475V82.4475ZM41.4729 78.4608L42.7787 81.5475L45.5087 80.6791L44.1983 77.5924L41.4729 78.4608Z" fill="#093F68"/>
<path d="M44.2165 77.162C44.4684 76.2978 44.3249 75.3826 43.8161 74.6082C42.4511 72.5043 41.1544 75.1963 39.7712 71.0557C39.7712 71.0557 37.8784 73.5069 38.6564 75.5081C39.5027 77.7067 41.2863 78.1133 41.2863 78.1133L44.2165 77.162Z" fill="#FFBC0E"/>
<path d="M41.2727 78.4922C41.2349 78.4963 41.1967 78.4963 41.1589 78.4922C41.0725 78.4922 39.1251 78.0028 38.2105 75.6305C37.3733 73.4674 39.298 70.9372 39.3799 70.8307C39.4287 70.7673 39.4977 70.7175 39.5784 70.6874C39.6592 70.6573 39.7482 70.6481 39.8349 70.6609C39.9199 70.6729 39.9992 70.7057 40.0637 70.7553C40.1281 70.8049 40.175 70.8694 40.1989 70.9412C40.9314 73.1319 41.5639 73.1911 42.2054 73.2543C42.634 73.2654 43.0499 73.3828 43.4039 73.5927C43.7579 73.8026 44.0352 74.0961 44.2029 74.4384C44.7816 75.305 44.945 76.3341 44.6579 77.3041C44.6375 77.3614 44.6023 77.414 44.555 77.4578C44.5077 77.5015 44.4495 77.5354 44.3849 77.5567L41.4547 78.4922C41.3945 78.5021 41.3328 78.5021 41.2727 78.4922V78.4922ZM39.6529 72.0188C39.1979 72.8516 38.6246 74.2134 39.0705 75.37C39.7075 77.016 40.8905 77.5449 41.2681 77.6791L43.8161 76.862C43.9589 76.1535 43.8141 75.424 43.4066 74.7976C43.3115 74.5641 43.1343 74.3623 42.9 74.2207C42.6658 74.0791 42.3863 74.0047 42.1008 74.0082C41.1862 73.9371 40.3991 73.7161 39.6665 72.0188H39.6529Z" fill="#093F68"/>
<path d="M42.8698 81.9383C43.5113 83.8842 44.3667 86.1499 45.3859 88.5459C47.4107 93.322 49.5401 97.3403 50.9506 99.2034L52.4839 98.714C52.1563 96.4956 50.7731 92.2405 48.7438 87.4644C47.7246 85.0684 46.6827 82.8619 45.7181 81.0186L42.8698 81.9383Z" fill="#AD7972"/>
<path d="M50.9505 99.606C50.8748 99.6063 50.8002 99.5902 50.7334 99.5592C50.6667 99.5282 50.6099 99.4832 50.5683 99.4284C49.085 97.4548 46.9283 93.3418 44.9581 88.684C43.9708 86.3631 43.0972 84.0658 42.4329 82.0488C42.4003 81.9529 42.4108 81.8499 42.4623 81.7605C42.5139 81.6712 42.6025 81.6021 42.7104 81.5672L45.5587 80.6554C45.6671 80.6206 45.7866 80.6229 45.893 80.6617C45.9995 80.7006 46.0849 80.7731 46.132 80.8646C47.1376 82.779 48.1886 85.0171 49.1714 87.338C51.1507 91.9957 52.593 96.3377 52.9343 98.6705C52.9441 98.7561 52.9214 98.8422 52.8697 98.9155C52.8179 98.9889 52.74 99.0457 52.6476 99.0771L51.1097 99.5705C51.0596 99.5906 51.0056 99.6026 50.9505 99.606V99.606ZM43.4248 82.183C44.0663 84.0974 44.8899 86.2407 45.8135 88.4117C47.6836 92.8168 49.6992 96.7008 51.137 98.7297L51.9833 98.4613C51.5738 96.1167 50.1906 92.0155 48.316 87.6104C47.406 85.4394 46.4187 83.3474 45.4768 81.5238L43.4248 82.183Z" fill="#093F68"/>
<path d="M45.6816 83.214L42.4751 84.2386C42.0672 84.3689 41.8583 84.7615 42.0085 85.1154L42.0793 85.2821C42.2295 85.636 42.682 85.8172 43.09 85.6868L46.2964 84.6623C46.7044 84.5319 46.9133 84.1394 46.763 83.7855L46.6923 83.6188C46.542 83.2649 46.0895 83.0837 45.6816 83.214Z" fill="#FFC9B0"/>
<path d="M42.8243 86.1183C42.6437 86.1187 42.4651 86.085 42.301 86.0196C42.1532 85.9609 42.0204 85.8773 41.9102 85.7736C41.8001 85.6699 41.7148 85.5483 41.6595 85.4157L41.5867 85.246C41.4736 84.9779 41.4877 84.682 41.6259 84.4229C41.7641 84.1639 42.0151 83.9631 42.3238 83.8644L45.5088 82.8381C45.8184 82.741 46.1597 82.7536 46.4587 82.8733C46.7576 82.993 46.9901 83.2102 47.1058 83.4776L47.1741 83.6434C47.2326 83.7759 47.2595 83.9173 47.2532 84.0591C47.247 84.2009 47.2077 84.3401 47.1377 84.4683C47.0004 84.7278 46.75 84.9294 46.4415 85.0289L43.252 86.0512C43.1155 86.0966 42.9704 86.1194 42.8243 86.1183V86.1183ZM45.9592 83.5605C45.9188 83.5613 45.8788 83.568 45.8409 83.5802L42.6559 84.6026C42.6149 84.6157 42.5774 84.6358 42.5454 84.6616C42.5134 84.6874 42.4875 84.7184 42.4693 84.7529C42.4512 84.7873 42.441 84.8246 42.4395 84.8624C42.4379 84.9003 42.445 84.9381 42.4603 84.9736L42.5285 85.1433C42.5618 85.2135 42.6232 85.271 42.7014 85.3052C42.7418 85.3197 42.7851 85.3272 42.8288 85.3272C42.8725 85.3272 42.9158 85.3197 42.9562 85.3052L46.1412 84.2789C46.1829 84.267 46.2212 84.2475 46.2534 84.2216C46.2856 84.1957 46.3109 84.1641 46.3278 84.1289C46.3447 84.0946 46.3534 84.0576 46.3534 84.0203C46.3534 83.983 46.3447 83.9461 46.3278 83.9118L46.255 83.7421C46.2398 83.7065 46.2167 83.674 46.1871 83.6462C46.1574 83.6184 46.1217 83.596 46.0821 83.5802C46.0427 83.5677 46.0011 83.561 45.9592 83.5605V83.5605Z" fill="#093F68"/>
<path d="M49.5361 86.157L48.2529 83.1346C48.0948 82.7623 47.6197 82.5713 47.1917 82.7081C46.7638 82.8448 46.545 83.2575 46.703 83.6298L47.9863 86.6522C48.1443 87.0245 48.6194 87.2155 49.0474 87.0787C49.4754 86.942 49.6942 86.5293 49.5361 86.157Z" fill="#FFC9B0"/>
<path d="M48.762 87.5237C48.5006 87.5222 48.2459 87.452 48.0314 87.3224C47.8169 87.1927 47.6529 87.0097 47.5608 86.7974L46.2777 83.7699C46.2189 83.6328 46.1919 83.487 46.1983 83.3409C46.2047 83.1947 46.2444 83.0511 46.315 82.9183C46.3856 82.7855 46.4858 82.6661 46.6098 82.567C46.7338 82.468 46.8792 82.3911 47.0376 82.341C47.3565 82.2419 47.7075 82.2546 48.0158 82.3765C48.1698 82.4374 48.3082 82.5242 48.423 82.632C48.5378 82.7397 48.6268 82.8662 48.6847 83.0041L49.9678 86.0277C50.0853 86.3046 50.0713 86.6106 49.9288 86.8786C49.7863 87.1465 49.527 87.3544 49.2079 87.4566C49.0646 87.5003 48.9139 87.523 48.762 87.5237V87.5237ZM47.4789 83.0633C47.4367 83.0577 47.3937 83.0577 47.3515 83.0633C47.259 83.0942 47.184 83.1551 47.1422 83.2331C47.1232 83.2717 47.1134 83.3134 47.1134 83.3554C47.1134 83.3975 47.1232 83.4391 47.1422 83.4778L48.4253 86.5014C48.4413 86.5413 48.4665 86.578 48.4994 86.6092C48.5322 86.6404 48.572 86.6655 48.6164 86.6829C48.6821 86.7098 48.7555 86.7192 48.8273 86.71C48.8992 86.7008 48.9663 86.6734 49.0203 86.6313C49.0742 86.5891 49.1126 86.534 49.1306 86.473C49.1486 86.412 49.1454 86.3477 49.1215 86.2882L47.8293 83.2883C47.8123 83.2483 47.7862 83.2115 47.7526 83.1804C47.719 83.1492 47.6785 83.1241 47.6336 83.1067C47.5867 83.0819 47.5337 83.0671 47.4789 83.0633V83.0633Z" fill="#093F68"/>
<path d="M46.2981 84.6657L43.0917 85.6903C42.6837 85.8206 42.4748 86.2132 42.6251 86.5671L42.6959 86.7337C42.8461 87.0876 43.2986 87.2689 43.7066 87.1385L46.913 86.1139C47.321 85.9836 47.5299 85.591 47.3796 85.2371L47.3088 85.0705C47.1586 84.7166 46.7061 84.5353 46.2981 84.6657Z" fill="#FFC9B0"/>
<path d="M43.4385 87.567C43.1848 87.5671 42.9373 87.4998 42.7291 87.3742C42.5208 87.2486 42.3619 87.0707 42.2737 86.8644L42.2009 86.6947C42.089 86.4266 42.1037 86.1311 42.2418 85.8724C42.3798 85.6136 42.63 85.4127 42.938 85.3132L46.123 84.2869C46.4326 84.1897 46.7739 84.2024 47.0729 84.3221C47.3718 84.4418 47.6043 84.6589 47.72 84.9263L47.7928 85.0921C47.906 85.3607 47.8921 85.6572 47.7539 85.9168C47.6158 86.1765 47.3648 86.3781 47.0557 86.4776V86.4776L43.848 87.4999C43.7173 87.5438 43.5785 87.5665 43.4385 87.567V87.567ZM46.5734 85.0092C46.5358 85.0033 46.4973 85.0033 46.4597 85.0092L43.2519 86.0513C43.17 86.0789 43.1033 86.1325 43.0654 86.2013C43.0486 86.2363 43.04 86.2739 43.04 86.3118C43.04 86.3497 43.0486 86.3873 43.0654 86.4223L43.1382 86.5881C43.1519 86.6242 43.1739 86.6575 43.2029 86.6859C43.2319 86.7144 43.2672 86.7374 43.3068 86.7537C43.3464 86.7699 43.3894 86.779 43.4331 86.7804C43.4769 86.7818 43.5205 86.7755 43.5613 86.7618L46.7691 85.7355C46.8507 85.7089 46.917 85.6554 46.9536 85.5867C46.9902 85.5181 46.9942 85.4396 46.9647 85.3684L46.8919 85.1987C46.8775 85.1628 46.8546 85.13 46.8249 85.1021C46.7951 85.0743 46.7591 85.0521 46.719 85.0368C46.6733 85.0188 46.6237 85.0094 46.5734 85.0092V85.0092Z" fill="#093F68"/>
<path d="M46.9103 86.113L43.7038 87.1375C43.2959 87.2679 43.087 87.6604 43.2373 88.0143L43.308 88.181C43.4583 88.5349 43.9108 88.7161 44.3187 88.5858L47.5252 87.5612C47.9331 87.4309 48.142 87.0383 47.9918 86.6844L47.921 86.5177C47.7708 86.1638 47.3183 85.9826 46.9103 86.113Z" fill="#FFC9B0"/>
<path d="M44.0527 89.0156C43.8735 89.0164 43.6964 88.9827 43.534 88.9169C43.3855 88.8585 43.2519 88.775 43.141 88.6713C43.03 88.5676 42.944 88.4458 42.8879 88.313L42.8151 88.1432C42.7033 87.8752 42.718 87.5796 42.856 87.3209C42.9941 87.0622 43.2443 86.8612 43.5522 86.7617L46.76 85.7354C47.069 85.6384 47.4096 85.6512 47.7079 85.7709C48.0061 85.8907 48.2378 86.1077 48.3525 86.3749L48.4253 86.5446C48.5371 86.8127 48.5224 87.1082 48.3844 87.3669C48.2463 87.6257 47.9961 87.8266 47.6882 87.9261L44.5032 88.9485C44.3594 88.9959 44.2065 89.0187 44.0527 89.0156V89.0156ZM47.1877 86.4459C47.1487 86.4468 47.1102 86.4534 47.0739 86.4657L43.8662 87.488C43.7852 87.5169 43.719 87.5702 43.6796 87.638C43.6628 87.673 43.6542 87.7106 43.6542 87.7485C43.6542 87.7865 43.6628 87.824 43.6796 87.859L43.7524 88.0288C43.7843 88.0998 43.8461 88.1577 43.9253 88.1906C43.9649 88.2053 44.0074 88.2128 44.0504 88.2128C44.0935 88.2128 44.136 88.2053 44.1756 88.1906L47.3606 87.1643C47.4014 87.1516 47.4388 87.1319 47.4708 87.1065C47.5028 87.0811 47.5286 87.0504 47.5468 87.0163C47.565 86.9821 47.5752 86.9452 47.5768 86.9076C47.5784 86.87 47.5714 86.8325 47.5562 86.7972L47.4834 86.6275C47.4602 86.5754 47.4197 86.5303 47.3671 86.498C47.3145 86.4657 47.2521 86.4476 47.1877 86.4459V86.4459Z" fill="#093F68"/>
<path d="M47.5312 87.5592L44.3247 88.5838C43.9168 88.7142 43.7079 89.1067 43.8581 89.4606L43.9289 89.6273C44.0791 89.9812 44.5316 90.1624 44.9396 90.0321L48.1461 89.0075C48.554 88.8771 48.7629 88.4846 48.6126 88.1307L48.5419 87.964C48.3916 87.6101 47.9391 87.4289 47.5312 87.5592Z" fill="#FFC9B0"/>
<path d="M44.6669 90.4644C44.4133 90.4645 44.1658 90.3972 43.9575 90.2716C43.7493 90.146 43.5904 89.9681 43.5021 89.7618L43.4339 89.5921C43.3206 89.3246 43.334 89.029 43.4713 88.7701C43.6086 88.5112 43.8586 88.31 44.1664 88.2106L47.3514 87.1843C47.6604 87.0862 48.0016 87.0984 48.3001 87.2183C48.5987 87.3382 48.8302 87.5559 48.9439 87.8238L49.0167 87.9935C49.0733 88.1261 49.0992 88.2672 49.0927 88.4086C49.0863 88.5499 49.0477 88.6888 48.9792 88.8172C48.9107 88.9456 48.8137 89.0609 48.6936 89.1567C48.5735 89.2524 48.4329 89.3266 48.2796 89.375L45.0946 90.3973C44.958 90.4423 44.813 90.4651 44.6669 90.4644V90.4644ZM47.8019 87.9106C47.7642 87.9049 47.7258 87.9049 47.6881 87.9106L44.5031 88.9329C44.4618 88.9457 44.4237 88.9655 44.3912 88.9911C44.3587 89.0167 44.3324 89.0477 44.3138 89.0822C44.2952 89.1167 44.2846 89.1541 44.2828 89.1921C44.2809 89.2302 44.2878 89.2682 44.3029 89.304L44.3757 89.4737C44.4076 89.5447 44.4694 89.6026 44.5486 89.6355C44.5889 89.6503 44.6323 89.6579 44.676 89.6579C44.7198 89.6579 44.7631 89.6503 44.8034 89.6355L47.9884 88.6092C48.0292 88.5965 48.0667 88.5768 48.0987 88.5514C48.1306 88.526 48.1565 88.4953 48.1747 88.4612C48.1929 88.427 48.2031 88.3901 48.2047 88.3525C48.2063 88.3149 48.1993 88.2774 48.1841 88.2422L48.1158 88.0724C48.087 88.0221 48.042 87.9801 47.9863 87.9514C47.9307 87.9227 47.8666 87.9085 47.8019 87.9106Z" fill="#093F68"/>
<path d="M89.0476 82.7517C85.5623 81.6109 78.528 80.8649 72.4629 86.2252C66.3977 91.5856 68.4589 98.0669 74.8653 100.625C81.2717 103.182 86.7499 101.951 88.0193 98.4774C89.2888 95.0038 85.0391 94.7354 86.7726 92.9039C88.5062 91.0724 90.672 93.1289 92.5056 90.2238C94.3393 87.3186 92.542 83.8924 89.0476 82.7517Z" fill="white"/>
<path d="M81.3581 102.385C79.0415 102.339 76.7635 101.861 74.6787 100.984C71.3663 99.6573 69.1277 97.3008 68.5407 94.5259C67.9219 91.5931 69.2051 88.5459 72.1444 85.9486C77.7136 81.0225 84.6159 80.8764 89.2159 82.3961C90.1407 82.6922 90.9815 83.1568 91.6816 83.7588C92.3818 84.3607 92.925 85.0859 93.2746 85.8854C93.594 86.6219 93.7244 87.4099 93.6569 88.1945C93.5893 88.9792 93.3253 89.7416 92.8832 90.4287C91.7412 92.2444 90.3625 92.3312 89.2432 92.4023C88.3969 92.4536 87.7281 92.497 87.1002 93.1681C86.5633 93.7404 86.7498 93.9851 87.4187 94.6838C88.174 95.4732 89.2023 96.5508 88.4515 98.631C88.1878 99.3389 87.7491 99.9883 87.1659 100.534C86.5828 101.079 85.8693 101.507 85.0754 101.789C83.8975 102.209 82.6315 102.412 81.3581 102.385V102.385ZM83.8106 82.3329C80.2479 82.3329 76.253 83.4421 72.795 86.5012C70.065 88.913 68.8729 91.7115 69.4371 94.3956C69.9694 96.9179 72.0215 99.0613 75.0609 100.281C78.7009 101.73 82.2044 102.01 84.7206 101.047C85.3946 100.809 86.0007 100.446 86.4966 99.9835C86.9924 99.5213 87.3661 98.9709 87.5916 98.3705C88.1967 96.7166 87.4505 95.939 86.7271 95.1851C86.0901 94.522 85.3621 93.768 86.404 92.6668C87.2822 91.7313 88.2923 91.6681 89.1886 91.6089C90.2579 91.5418 91.1815 91.4865 92.087 90.03C92.4642 89.4417 92.6897 88.7894 92.7478 88.1181C92.8059 87.4468 92.6953 86.7726 92.4237 86.142C92.1185 85.4479 91.6454 84.8186 91.0364 84.2964C90.4273 83.7742 89.6965 83.3712 88.8929 83.1145V83.1145C87.2663 82.5925 85.5449 82.3278 83.8106 82.3329V82.3329Z" fill="#093F68"/>
<path d="M78.8694 84.9499C78.9058 85.1039 78.9968 85.246 79.0332 85.3999C79.0401 85.6089 78.9832 85.8158 78.8681 85.9995C78.753 86.1832 78.5839 86.3373 78.378 86.4459C77.9602 86.6575 77.5927 86.9361 77.2951 87.2669C77.1335 87.5513 77.0947 87.8764 77.1857 88.1834C77.2767 88.4904 77.4914 88.759 77.791 88.9406C78.0987 89.1119 78.4506 89.2142 78.8151 89.2383C79.1797 89.2624 79.5454 89.2076 79.8795 89.0787C80.5893 88.8261 81.3446 88.3169 82.0271 88.6129C82.2669 88.7517 82.4868 88.9147 82.6823 89.0984C83.1235 89.3998 83.6811 89.5432 84.2404 89.4992C84.7997 89.4551 85.3183 89.227 85.6898 88.8616C86.0382 88.478 86.2276 88.0039 86.2276 87.5156C86.2276 87.0273 86.0382 86.5532 85.6898 86.1696C84.7252 85.1354 85.5351 83.4065 83.4467 83.2408C82.3729 83.15 78.5827 83.5723 78.8694 84.9499Z" fill="#FFBC0E"/>
<path d="M84.0017 89.9037C83.4079 89.9124 82.8313 89.7311 82.3819 89.3945C82.3047 89.338 82.2317 89.2774 82.1635 89.2129C82.0657 89.1174 81.9523 89.0349 81.8268 88.9682C81.5265 88.8379 81.1397 88.9682 80.5892 89.2247C80.4072 89.3037 80.2297 89.3787 80.0523 89.4418C79.6478 89.5977 79.2047 89.663 78.7636 89.632C78.3224 89.601 77.8973 89.4745 77.527 89.2642C77.1326 89.0262 76.8517 88.6717 76.737 88.267C76.6222 87.8623 76.6815 87.4351 76.9037 87.0656C77.1448 86.7531 77.4635 86.4915 77.8364 86.2998L78.1049 86.1341C78.3688 85.9604 78.6327 85.6959 78.5826 85.4709C78.5698 85.4165 78.5499 85.3636 78.5235 85.313C78.4812 85.2195 78.4477 85.1231 78.4233 85.0249V85.0249C78.381 84.8359 78.3924 84.6407 78.4567 84.4564C78.5209 84.272 78.636 84.1041 78.7919 83.967C79.8248 82.9881 82.7049 82.7829 83.4784 82.85C85.1209 82.9921 85.353 83.9789 85.5395 84.7683C85.5959 85.1821 85.7643 85.5784 86.031 85.9249C86.4454 86.3794 86.6709 86.942 86.6709 87.5215C86.6709 88.1011 86.4454 88.6636 86.031 89.1182C85.5681 89.5793 84.9139 89.8631 84.211 89.9076L84.0017 89.9037ZM81.5856 88.1274C81.8102 88.1267 82.0318 88.1727 82.2317 88.2616C82.4482 88.3645 82.6435 88.4979 82.8095 88.6563C82.8637 88.708 82.9215 88.7568 82.9825 88.8024C83.1426 88.9179 83.3277 89.0046 83.5269 89.0575C83.7261 89.1104 83.9354 89.1283 84.1427 89.1103C84.3711 89.0996 84.5949 89.0498 84.8011 88.9638C85.0072 88.8777 85.1917 88.7572 85.3439 88.609C85.6207 88.2933 85.7687 87.9068 85.7646 87.5102C85.7604 87.1137 85.6045 86.7295 85.3212 86.4183C84.9585 85.9766 84.7271 85.4641 84.6478 84.9262C84.4567 84.1131 84.3247 83.7144 83.3874 83.6355C82.5957 83.5644 80.166 83.8328 79.4653 84.4999C79.4004 84.5471 79.352 84.609 79.3255 84.6787C79.299 84.7485 79.2954 84.8232 79.3152 84.8946V84.8946C79.3307 84.9497 79.3505 85.0037 79.3743 85.0565C79.4181 85.1499 79.4531 85.2463 79.479 85.3446C79.512 85.6271 79.4523 85.912 79.3065 86.1663C79.1608 86.4205 78.935 86.6338 78.6554 86.7814L78.3551 86.9669C78.094 87.0983 77.8677 87.2758 77.6908 87.488C77.5851 87.6865 77.5637 87.911 77.6303 88.1219C77.6969 88.3328 77.8473 88.5165 78.0548 88.6405C78.3007 88.7713 78.5798 88.8479 78.8676 88.8637C79.1555 88.8795 79.4435 88.8341 79.7065 88.7313C79.8657 88.6761 80.0204 88.609 80.1615 88.5379C80.5936 88.3081 81.0809 88.1676 81.5856 88.1274Z" fill="#093F68"/>
<path d="M88.1377 87.4922C87.7808 87.8149 87.5582 88.2316 87.5052 88.6764C87.4859 88.8271 87.5071 88.9797 87.5671 89.1221C87.6271 89.2645 87.7243 89.393 87.851 89.4974C88.0747 89.636 88.3454 89.7055 88.6199 89.6948C89.3285 89.6722 90.0098 89.4521 90.5628 89.0672C91.2908 88.5817 92.5056 87.208 91.3772 86.5489C90.3489 85.9765 88.7883 86.8607 88.1377 87.4922Z" fill="#093F68"/>
<path d="M88.6154 90.1012C88.2379 90.1133 87.8671 90.013 87.5644 89.817C87.3797 89.6739 87.2367 89.4948 87.1474 89.2944C87.058 89.0941 87.0247 88.8782 87.0502 88.6645C87.107 88.1259 87.3715 87.6197 87.801 87.2277V87.2277C88.6154 86.4382 90.3717 85.5027 91.6275 86.233C91.8256 86.34 91.9899 86.488 92.1059 86.6636C92.2218 86.8393 92.2857 87.0372 92.2918 87.2395C92.3191 88.0882 91.4136 89.0079 90.8358 89.3907C90.205 89.8316 89.4251 90.0812 88.6154 90.1012ZM88.4562 87.7605C88.1637 88.0184 87.9822 88.3557 87.942 88.7158C87.9304 88.8055 87.9419 88.8963 87.9757 88.9816C88.0095 89.067 88.0649 89.1447 88.1377 89.2092C88.282 89.2868 88.4504 89.324 88.62 89.3158C89.2302 89.2995 89.8165 89.1064 90.2853 88.7671C90.7403 88.4632 91.4 87.7566 91.3818 87.2671C91.3804 87.1909 91.3556 87.1164 91.31 87.0512C91.2644 86.986 91.1997 86.9325 91.1225 86.8961C90.4309 86.5014 89.1159 87.1527 88.4744 87.7645L88.4562 87.7605Z" fill="#093F68"/>
<path d="M91.0906 85.842C90.9086 85.4749 90.5582 85.0525 90.1077 85.1433C89.6573 85.2341 89.5026 85.6565 89.4298 86.0512C89.2205 87.0775 89.1841 88.1235 88.9748 89.1498C88.9575 89.1958 88.9526 89.2446 88.9604 89.2925C88.9683 89.3404 88.9888 89.3861 89.0203 89.4261C89.0787 89.4688 89.1532 89.4913 89.2296 89.4892C89.6855 89.4995 90.1356 89.3993 90.5294 89.1998C90.9233 89.0004 91.2452 88.7097 91.4591 88.3603C91.8595 87.6301 91.4364 86.5446 91.0906 85.842Z" fill="#FFC9B0"/>
<path d="M89.3616 89.876H89.1796C88.9963 89.8709 88.8215 89.8077 88.6882 89.6984C88.6031 89.6137 88.5432 89.5122 88.5139 89.4028C88.4845 89.2934 88.4866 89.1794 88.5198 89.0708C88.629 88.5577 88.6927 88.0248 88.7564 87.5117C88.8201 86.9985 88.8793 86.4893 88.9839 85.9722C89.1295 85.2578 89.4753 84.8512 90.0213 84.7604C90.5673 84.6697 91.1725 85.0131 91.5092 85.6959C92.1189 86.9393 92.2372 87.8669 91.8595 88.5261C91.6152 88.9207 91.2561 89.2529 90.8178 89.4898C90.3796 89.7266 89.8775 89.8598 89.3616 89.876ZM90.2079 85.5341C90.1169 85.5341 89.9758 85.7078 89.8985 86.1064C89.7984 86.592 89.7392 87.0972 89.6801 87.5867C89.6209 88.0761 89.5572 88.5853 89.4571 89.0866C89.79 89.059 90.1102 88.9616 90.39 88.8028C90.6698 88.6439 90.9009 88.4284 91.0633 88.1748C91.2316 87.8748 91.3044 87.2551 90.6902 85.9999C90.54 85.7275 90.3398 85.5262 90.2079 85.5262V85.5341Z" fill="#093F68"/>
<path d="M73.1681 89.2288C72.3309 89.4893 71.5074 90.0577 71.5301 90.784C71.5855 91.1334 71.663 91.48 71.7622 91.8221C71.8896 92.6628 71.3527 93.6102 71.8941 94.3128C72.0925 94.5178 72.3404 94.6825 72.6204 94.795C72.9003 94.9076 73.2054 94.9653 73.5139 94.9641C74.4239 95.0312 75.4977 94.8259 75.9482 94.1273C76.0143 93.9755 76.1221 93.84 76.2621 93.7325C76.4117 93.6666 76.5767 93.6315 76.7444 93.6299C77.0325 93.5905 77.304 93.4873 77.5327 93.3304C77.7614 93.1734 77.9397 92.968 78.0503 92.7339C78.4097 91.9444 77.7773 91.0997 77.1403 90.5432C76.385 89.8643 75.2111 89.063 74.069 89.0709C73.7611 89.0823 73.4571 89.1356 73.1681 89.2288V89.2288Z" fill="#F56132"/>
<path d="M73.8597 95.3706H73.4775C73.0995 95.3707 72.7265 95.2961 72.3867 95.1525C72.0469 95.0089 71.7493 94.8 71.5165 94.5417C71.0888 93.9852 71.1798 93.3576 71.2617 92.7773C71.3201 92.4828 71.3369 92.1833 71.3117 91.8852C71.289 91.7629 71.2526 91.6326 71.2116 91.4905C71.1345 91.2658 71.0887 91.0339 71.0751 90.7998C71.0478 89.8248 72.1034 89.1498 73.018 88.8656C73.3593 88.7564 73.719 88.6964 74.0827 88.688C75.4841 88.688 76.8127 89.6827 77.4679 90.2669C78.4598 91.1629 78.8101 92.0866 78.4552 92.8799C78.3157 93.1784 78.0893 93.4404 77.7982 93.6403C77.5072 93.8402 77.1613 93.9713 76.7945 94.0207H76.6807C76.6175 94.0233 76.5548 94.0326 76.4942 94.0483C76.4535 94.0951 76.4184 94.1454 76.3895 94.1983C76.3895 94.2338 76.3486 94.2694 76.3258 94.3049C75.9118 94.9917 74.9972 95.3706 73.8597 95.3706ZM74.1009 89.4498C73.8398 89.4585 73.5819 89.5025 73.3365 89.5801V89.5801C72.6585 89.7932 71.9715 90.2353 71.9988 90.7642C72.0112 90.9382 72.0463 91.1103 72.1034 91.2774C72.1575 91.4365 72.1986 91.5987 72.2263 91.7629C72.2639 92.1262 72.2486 92.4923 72.1808 92.8523C72.108 93.3457 72.0488 93.772 72.29 94.0838C72.4513 94.237 72.6483 94.3588 72.8679 94.4411C73.0875 94.5235 73.3248 94.5645 73.564 94.5615C74.2965 94.6167 75.2111 94.4746 75.566 93.926L75.6115 93.847C75.7003 93.6674 75.8433 93.512 76.0255 93.397C76.2026 93.3059 76.4023 93.2531 76.6079 93.2431H76.6944C76.9033 93.2141 77.1 93.1389 77.2658 93.0249C77.4315 92.9108 77.5607 92.7617 77.6407 92.5918C77.9456 91.9129 77.1857 91.1274 76.8445 90.8195C76.3804 90.4129 75.2065 89.4695 74.1009 89.4695V89.4498Z" fill="#093F68"/>
<path d="M77.3405 97.3323C77.3677 97.5832 77.4559 97.8263 77.5995 98.0454C77.743 98.2645 77.9385 98.4547 78.1731 98.6033C78.6442 98.8977 79.1826 99.1009 79.752 99.1993C81.2352 99.5056 82.7867 99.4538 84.2383 99.0493C84.5064 98.9882 84.7542 98.8733 84.9617 98.7138C85.1494 98.5128 85.2518 98.262 85.2518 98.0033C85.2518 97.7447 85.1494 97.4938 84.9617 97.2928C84.5735 96.8985 84.0685 96.6037 83.5012 96.4402C82.4683 96.0692 82.35 94.6166 80.9259 94.5771C80.3116 94.5771 79.9658 94.9206 79.5609 95.26C78.9057 95.8126 78.8784 95.7337 77.9957 95.7376C77.2176 95.7416 77.3132 96.8942 77.3405 97.3323Z" fill="#70CC40"/>
<path d="M81.6858 99.7878C80.9997 99.7883 80.3158 99.7208 79.6474 99.5865C79.0138 99.4771 78.4157 99.248 77.8957 98.9155C77.6065 98.7306 77.3667 98.4939 77.1924 98.2215C77.0181 97.9491 76.9135 97.6473 76.8856 97.3366V97.2814C76.8583 96.8432 76.8037 96.0222 77.2723 95.5919C77.3632 95.5067 77.4738 95.4391 77.5969 95.3936C77.72 95.348 77.8528 95.3255 77.9867 95.3275H78.2779C78.7966 95.3275 78.7966 95.3275 79.2425 94.9604L79.3699 94.8499C79.5575 94.6439 79.7949 94.476 80.0653 94.3581C80.3357 94.2401 80.6325 94.1749 80.9351 94.167C81.9907 94.1946 82.4866 94.8301 82.887 95.3512C83.0666 95.6476 83.3375 95.8949 83.6696 96.0656C84.3147 96.2561 84.8874 96.5959 85.3258 97.0485C85.5763 97.3256 85.7095 97.669 85.7028 98.0211C85.6962 98.3733 85.5502 98.7127 85.2894 98.9826C85.0332 99.1916 84.7201 99.341 84.3794 99.4168C83.5098 99.6633 82.6006 99.7886 81.6858 99.7878V99.7878ZM77.9867 96.1327C77.9773 96.1291 77.9673 96.1273 77.9571 96.1273C77.9469 96.1273 77.9368 96.1291 77.9275 96.1327C77.8001 96.2551 77.7501 96.6261 77.791 97.2379V97.2971C77.8146 97.4911 77.8852 97.6786 77.9981 97.8473C78.111 98.016 78.2637 98.1621 78.4462 98.2761C78.8657 98.537 79.3453 98.7161 79.8522 98.801C81.2544 99.0883 82.7203 99.0392 84.0928 98.6589C84.2914 98.6162 84.4765 98.5353 84.6342 98.4221C84.7405 98.2858 84.7931 98.1233 84.784 97.959C84.775 97.7946 84.7049 97.6372 84.5842 97.5103C84.2391 97.1775 83.8 96.9285 83.3102 96.7879C82.8087 96.563 82.3954 96.2141 82.1226 95.7854C81.7313 95.2801 81.4583 94.9722 80.8941 94.9564C80.5711 94.9564 80.3481 95.1143 79.9841 95.4143L79.8476 95.5288C79.1924 96.0774 78.9922 96.1209 78.2415 96.1169L77.9867 96.1327Z" fill="#093F68"/>
</svg>
