<svg width="643" height="650" viewBox="0 0 643 650" fill="none" xmlns="http://www.w3.org/2000/svg">
<path d="M625.406 184.57C645.404 230.789 643.739 284.274 630.686 334.546C617.705 384.54 590.307 430.589 551.984 467.338C513.868 503.888 466.551 530.801 415.097 541.279C364.654 551.551 314.209 541.971 267.166 525.336C220.592 508.866 175.779 485.665 147.382 446.609C119.242 407.905 115.785 358.238 110.682 310.108C105.281 259.158 90.5812 204.667 116.834 158.475C143.135 112.198 198.626 90.9415 247.818 68.8174C293.509 48.2677 341.366 32.7589 390.371 35.4509C438.974 38.1208 482.333 58.579 522.23 83.8919C563.964 110.37 605.964 139.637 625.406 184.57Z" fill="white"/>
<path d="M339.108 233.964C339.108 233.964 342.965 224.27 345.614 224.676C348.264 225.082 346.163 228.828 346.163 228.828C346.163 228.828 352.75 226.036 354.851 228.006C356.952 229.975 344.112 237.445 344.112 237.445L339.108 233.964Z" fill="#F4A28C"/>
<path d="M318.473 256.639L338.022 232.289L346.457 238.074L331.435 279.019L312.251 279.101L318.473 256.639Z" fill="#0F5BEE"/>
<path opacity="0.09" d="M318.473 256.639L338.022 232.289L346.457 238.074L331.435 279.019L312.251 279.101L318.473 256.639Z" fill="black"/>
<path d="M442.496 247.717L456.666 279.019H429.697L442.496 247.717Z" fill="#24285B"/>
<path opacity="0.44" d="M442.496 247.717L456.666 279.019H429.697L442.496 247.717Z" fill="white"/>
<path d="M344.975 271.214L362.707 232.035C363.133 231.094 363.82 230.296 364.688 229.736C365.556 229.176 366.567 228.878 367.599 228.878H445.054C445.818 228.879 446.569 229.067 447.243 229.426C447.917 229.785 448.492 230.304 448.918 230.937C449.345 231.571 449.608 232.3 449.687 233.059C449.765 233.819 449.655 234.586 449.368 235.293L432.641 276.198C432.301 277.033 431.719 277.748 430.971 278.251C430.222 278.753 429.34 279.021 428.438 279.019H350.009C349.085 279.021 348.175 278.79 347.363 278.348C346.551 277.906 345.863 277.268 345.362 276.491C344.861 275.714 344.563 274.824 344.495 273.902C344.428 272.98 344.593 272.056 344.975 271.214V271.214Z" fill="#24285B"/>
<path d="M355.389 268.981L370.228 236.186C370.495 235.604 370.924 235.111 371.464 234.767C372.004 234.423 372.633 234.243 373.273 234.248H437.269C437.586 234.254 437.897 234.337 438.174 234.49C438.452 234.643 438.688 234.862 438.862 235.127C439.036 235.392 439.142 235.695 439.173 236.011C439.203 236.326 439.156 236.644 439.035 236.938L424.825 271.6C424.573 272.2 424.15 272.713 423.609 273.074C423.067 273.435 422.431 273.628 421.78 273.63H358.393C357.843 273.629 357.302 273.49 356.819 273.227C356.336 272.964 355.927 272.584 355.628 272.122C355.33 271.66 355.151 271.13 355.11 270.582C355.068 270.033 355.164 269.483 355.389 268.981Z" fill="white"/>
<path d="M417.984 238.074L406.271 266.383H421.242L431.321 238.074H417.984Z" fill="#E6E6E6"/>
<path opacity="0.51" d="M375.598 238.074L372.674 244.377H411.965L414.279 238.074H375.598Z" fill="#E6E6E6"/>
<path opacity="0.66" d="M411.792 162.974H346.934V208.385H411.792V162.974Z" fill="#E6E6E6"/>
<path opacity="0.31" d="M497.398 185.802H447.236V220.921H497.398V185.802Z" fill="#E6E6E6"/>
<path opacity="0.3" d="M366.818 395.897C464.284 395.897 543.296 389.526 543.296 381.666C543.296 373.807 464.284 367.436 366.818 367.436C269.352 367.436 190.34 373.807 190.34 381.666C190.34 389.526 269.352 395.897 366.818 395.897Z" fill="#E6E6E6"/>
<path d="M481.716 279.019H244.257V381.159H481.716V279.019Z" fill="#E6E6E6"/>
<path d="M420.288 293.717H258.913V381.159H420.288V293.717Z" fill="#C1C1C1"/>
<path d="M302.507 333.576L298.052 377.251H307.136L318.473 331.13L309.826 327.719L302.507 333.576Z" fill="#24285B"/>
<path d="M286.988 335.037H276.899V370.177H286.988V335.037Z" fill="#FFD200"/>
<path opacity="0.15" d="M286.988 335.037H276.899V370.177H286.988V335.037Z" fill="black"/>
<path d="M267.5 308.657C267.5 308.657 267.977 320.634 274.696 325.273C279.101 328.318 301.35 329.993 316.129 330.784C317.848 330.877 319.529 331.323 321.069 332.093C322.608 332.864 323.972 333.943 325.077 335.263C326.181 336.584 327.002 338.118 327.488 339.769C327.974 341.42 328.115 343.154 327.903 344.863L323.843 377.251H333.12L341.859 338.539C342.946 333.72 342.229 328.67 339.844 324.344C337.46 320.018 333.572 316.716 328.918 315.062L308.191 307.703L267.5 308.657Z" fill="#24285B"/>
<path d="M307.075 210.69L305.065 223.418L293.657 224.423L300.305 204.011L307.075 210.69Z" fill="#F4A28C"/>
<path d="M304.608 196.845C305.539 196.489 306.544 196.371 307.532 196.501C308.52 196.632 309.46 197.007 310.267 197.593C311.073 198.179 311.721 198.956 312.15 199.855C312.58 200.755 312.779 201.747 312.728 202.742C312.536 207.513 311.348 214.1 306.121 213.085C298.123 211.481 299.878 201.067 299.878 201.067C301.001 199.221 302.647 197.751 304.608 196.845V196.845Z" fill="#F4A28C"/>
<path d="M259.553 267.956C256.629 250.904 263.937 233.446 278.594 224.311C285.039 220.117 292.708 218.215 300.366 218.911C327.385 221.408 337.312 252.305 323.152 275.853C319.487 282.08 316.265 288.559 313.51 295.239L308.232 307.744L266.495 308.454L259.553 267.956Z" fill="#0F5BEE"/>
<path d="M298.965 377.251L298.153 381.118C298.055 381.585 298.062 382.068 298.174 382.531C298.286 382.995 298.5 383.428 298.801 383.798C299.101 384.169 299.48 384.468 299.911 384.673C300.341 384.878 300.812 384.985 301.289 384.985H309.247C309.662 384.98 310.064 384.841 310.393 384.589C310.723 384.337 310.962 383.986 311.076 383.587C311.19 383.188 311.173 382.763 311.026 382.375C310.879 381.987 310.611 381.657 310.262 381.433L303.664 377.251H298.965Z" fill="#0F5BEE"/>
<path d="M325.609 377.251L324.797 381.118C324.697 381.585 324.702 382.069 324.814 382.533C324.925 382.998 325.139 383.431 325.44 383.802C325.741 384.173 326.121 384.472 326.552 384.677C326.984 384.881 327.456 384.987 327.933 384.985H335.881C336.295 384.98 336.697 384.841 337.027 384.589C337.357 384.337 337.596 383.986 337.71 383.587C337.824 383.188 337.806 382.763 337.66 382.375C337.513 381.987 337.245 381.657 336.896 381.433C335.089 380.286 332.836 378.875 330.288 377.251H325.609Z" fill="#0F5BEE"/>
<path d="M298.112 235.902C298.334 233.467 299.221 231.139 300.675 229.172C302.129 227.206 304.096 225.676 306.359 224.751C308.623 223.825 311.098 223.539 313.513 223.923C315.928 224.307 318.192 225.347 320.057 226.93C324.071 230.326 327.322 234.532 329.598 239.272C337.403 255.624 349.847 266.362 391.827 265.378V275.629C391.827 275.629 330.806 288.56 308.851 263.916C299.483 253.411 297.412 243.647 298.112 235.902Z" fill="#0F5BEE"/>
<path opacity="0.44" d="M298.112 235.902C298.334 233.467 299.221 231.139 300.675 229.172C302.129 227.206 304.096 225.676 306.359 224.751C308.623 223.825 311.098 223.539 313.513 223.923C315.928 224.307 318.192 225.347 320.057 226.93C324.071 230.326 327.322 234.532 329.598 239.272C337.403 255.624 349.847 266.362 391.827 265.378V275.629C391.827 275.629 330.806 288.56 308.851 263.916C299.483 253.411 297.412 243.647 298.112 235.902Z" fill="white"/>
<path opacity="0.58" d="M501.589 369.476C501.589 369.476 492.373 366.959 490.374 358.392C490.374 358.392 504.645 355.5 505.051 370.237L501.589 369.476Z" fill="#0F5BEE"/>
<path opacity="0.73" d="M502.716 368.563C502.716 368.563 496.281 358.413 501.945 348.872C501.945 348.872 512.805 355.774 507.974 368.593L502.716 368.563Z" fill="#0F5BEE"/>
<path d="M395.478 256.93L393.79 257.905L405.788 278.685L407.475 277.71L395.478 256.93Z" fill="#FFD200"/>
<path d="M504.381 368.573C504.381 368.573 507.781 357.824 518.063 355.794C518.063 355.794 519.981 362.767 511.405 368.603L504.381 368.573Z" fill="#0F5BEE"/>
<path d="M497.692 368.329L499.559 381.108L511.323 381.159L513.059 368.4L497.692 368.329Z" fill="#24285B"/>
<path d="M391.827 268.169C391.827 268.169 400.242 262.556 404.637 266.464C409.032 270.372 391.827 275.599 391.827 275.599V268.169Z" fill="#F4A28C"/>
<path opacity="0.09" d="M302.487 209.38L300.366 218.87C300.366 218.87 277.143 232.654 275.853 253.949C275.853 253.949 272.21 292.326 294.255 307.744L269.814 308.454L260.395 249.381C260.395 249.381 267.703 220.779 295.565 218.728L298.478 209.786L302.487 209.38Z" fill="black"/>
<path d="M296.986 204.214C296.986 204.214 295.707 208.487 299.016 210.182C302.325 211.877 306.588 204.092 306.588 204.092C306.588 204.092 314.038 202.813 317.123 198.916C318.808 196.774 316.525 193.841 313.926 194.683C313.105 194.921 312.237 194.939 311.407 194.736C310.577 194.533 309.814 194.116 309.196 193.526C304.517 189.74 293.778 192.46 296.986 204.214Z" fill="#24285B"/>
<path d="M307.085 204.234C307.085 204.234 306.862 201.372 304.294 202.499C301.726 203.625 303.553 207.279 305.309 207.178C307.065 207.076 307.085 204.234 307.085 204.234Z" fill="#F4A28C"/>
<path d="M257.675 325.06C257.675 325.06 306.557 316.25 311.927 324.786C317.296 333.322 312.536 346.75 291.972 343.056C271.408 339.361 246.185 350.445 257.675 325.06Z" fill="#FFD200"/>
<path d="M256.741 307.785C253.371 307.174 250.169 305.859 247.343 303.923C244.518 301.988 242.134 299.478 240.347 296.556C238.561 293.635 237.412 290.369 236.977 286.972C236.541 283.575 236.829 280.125 237.821 276.847C241.993 263.043 250.072 248.346 265.511 249.442C290.845 251.249 306.202 316.96 256.741 307.785Z" fill="#FFD200"/>
<path opacity="0.09" d="M263.004 249.402C263.004 249.402 234.167 282.978 260.395 303.146L254.995 307.703C254.995 307.703 231.468 300.274 238.065 276.015C238.065 276.015 245.657 249.838 263.004 249.402Z" fill="black"/>
<path d="M269.926 338.356C269.052 338.354 268.195 338.112 267.449 337.656C246.875 325.171 257.583 283.414 258.862 278.695C259.028 278.089 259.311 277.521 259.695 277.025C260.08 276.529 260.558 276.113 261.103 275.801C261.649 275.49 262.25 275.289 262.873 275.21C263.496 275.13 264.128 275.175 264.734 275.34C265.34 275.505 265.907 275.788 266.404 276.173C266.9 276.557 267.316 277.036 267.627 277.581C267.939 278.126 268.14 278.728 268.219 279.351C268.298 279.974 268.254 280.606 268.089 281.212V281.212C265.328 291.362 260.182 322.066 272.402 329.485C273.296 330.026 273.988 330.844 274.372 331.815C274.757 332.785 274.813 333.855 274.533 334.861C274.252 335.867 273.649 336.753 272.818 337.384C271.986 338.015 270.97 338.357 269.926 338.356V338.356Z" fill="#FFD200"/>
<path opacity="0.44" d="M269.926 338.356C269.052 338.354 268.195 338.112 267.449 337.656C246.875 325.171 257.583 283.414 258.862 278.695C259.028 278.089 259.311 277.521 259.695 277.025C260.08 276.529 260.558 276.113 261.103 275.801C261.649 275.49 262.25 275.289 262.873 275.21C263.496 275.13 264.128 275.175 264.734 275.34C265.34 275.505 265.907 275.788 266.404 276.173C266.9 276.557 267.316 277.036 267.627 277.581C267.939 278.126 268.14 278.728 268.219 279.351C268.298 279.974 268.254 280.606 268.089 281.212V281.212C265.328 291.362 260.182 322.066 272.402 329.485C273.296 330.026 273.988 330.844 274.372 331.815C274.757 332.785 274.813 333.855 274.533 334.861C274.252 335.867 273.649 336.753 272.818 337.384C271.986 338.015 270.97 338.357 269.926 338.356V338.356Z" fill="white"/>
<path d="M276.899 370.177L258.913 385.96H306.557L286.988 370.177H276.899Z" fill="#FFD200"/>
<path d="M364.047 184.868C368.223 184.868 371.609 181.482 371.609 177.306C371.609 173.13 368.223 169.744 364.047 169.744C359.871 169.744 356.485 173.13 356.485 177.306C356.485 181.482 359.871 184.868 364.047 184.868Z" fill="#E6E6E6"/>
<path opacity="0.45" d="M402.201 170.881H380.886V200.489H402.201V170.881Z" fill="#C1C1C1"/>
<path d="M372.431 190.562H357.784V200.489H372.431V190.562Z" fill="#C1C1C1"/>
<path opacity="0.09" d="M420.288 353.581H372.421V381.159H420.288V353.581Z" fill="black"/>
</svg>
