<svg width="77" height="52" viewBox="0 0 77 52" fill="none" xmlns="http://www.w3.org/2000/svg">
<path fill-rule="evenodd" clip-rule="evenodd" d="M14.5 10C22.5081 10 29 16.4919 29 24.5C29 32.5081 22.5081 39 14.5 39C6.49182 39 -2.9e-05 32.5081 -2.9e-05 24.5C-2.9e-05 16.4919 6.49182 10 14.5 10Z" fill="black"/>
<path d="M12.0208 33V27.2444L12.9152 29.5583L6.82911 19.3889H10.893L15.2874 26.7583H12.9347L17.3486 19.3889H21.0819L15.0152 29.5583L15.8708 27.2444V33H12.0208Z" fill="white"/>
<path d="M33.9617 33V19.3889H40.1839C41.4284 19.3889 42.4978 19.5898 43.3923 19.9917C44.2997 20.3935 44.9997 20.9769 45.4923 21.7417C45.9848 22.4935 46.2311 23.388 46.2311 24.425C46.2311 25.4491 45.9848 26.337 45.4923 27.0889C44.9997 27.8278 44.2997 28.3981 43.3923 28.8C42.4978 29.1889 41.4284 29.3833 40.1839 29.3833H36.1006L37.8117 27.7694V33H33.9617ZM42.3811 33L38.9978 28.0417H43.1006L46.5034 33H42.3811ZM37.8117 28.1778L36.1006 26.4083H39.9506C40.7543 26.4083 41.3506 26.2333 41.7395 25.8833C42.1413 25.5333 42.3423 25.0472 42.3423 24.425C42.3423 23.7898 42.1413 23.2972 41.7395 22.9472C41.3506 22.5972 40.7543 22.4222 39.9506 22.4222H36.1006L37.8117 20.6528V28.1778ZM48.3746 33V22.4611H52.069V33H48.3746ZM50.2218 21.2944C49.5477 21.2944 49.0033 21.1065 48.5885 20.7306C48.1737 20.3546 47.9663 19.888 47.9663 19.3306C47.9663 18.7732 48.1737 18.3065 48.5885 17.9306C49.0033 17.5546 49.5477 17.3667 50.2218 17.3667C50.8959 17.3667 51.4403 17.5482 51.8551 17.9111C52.27 18.2611 52.4774 18.7148 52.4774 19.2722C52.4774 19.8556 52.27 20.3417 51.8551 20.7306C51.4533 21.1065 50.9088 21.2944 50.2218 21.2944ZM58.495 33.175C57.6005 33.175 56.7255 33.0713 55.87 32.8639C55.0274 32.6565 54.3468 32.3972 53.8283 32.0861L54.9366 29.5583C55.4292 29.8565 56.0061 30.0963 56.6672 30.2778C57.3283 30.4463 57.9764 30.5306 58.6116 30.5306C59.2339 30.5306 59.6616 30.4657 59.895 30.3361C60.1413 30.2065 60.2644 30.0315 60.2644 29.8111C60.2644 29.6037 60.1477 29.4546 59.9144 29.3639C59.694 29.2602 59.3959 29.1824 59.02 29.1306C58.657 29.0787 58.2551 29.0204 57.8144 28.9556C57.3737 28.8907 56.9264 28.8065 56.4727 28.7028C56.032 28.5861 55.6237 28.4176 55.2477 28.1972C54.8848 27.9639 54.5931 27.6528 54.3727 27.2639C54.1524 26.875 54.0422 26.3824 54.0422 25.7861C54.0422 25.112 54.2366 24.5157 54.6255 23.9972C55.0274 23.4657 55.6107 23.0509 56.3755 22.7528C57.1403 22.4417 58.0737 22.2861 59.1755 22.2861C59.9144 22.2861 60.6598 22.3639 61.4116 22.5194C62.1764 22.662 62.8181 22.8824 63.3366 23.1806L62.2283 25.6889C61.7098 25.3907 61.1913 25.1898 60.6727 25.0861C60.1542 24.9694 59.6616 24.9111 59.195 24.9111C58.5727 24.9111 58.132 24.9824 57.8727 25.125C57.6264 25.2676 57.5033 25.4426 57.5033 25.65C57.5033 25.8574 57.6135 26.0194 57.8339 26.1361C58.0542 26.2398 58.3459 26.3241 58.7089 26.3889C59.0848 26.4407 59.4931 26.4991 59.9339 26.5639C60.3746 26.6157 60.8153 26.7 61.2561 26.8167C61.7098 26.9333 62.1181 27.1083 62.4811 27.3417C62.857 27.562 63.1551 27.8667 63.3755 28.2556C63.5959 28.6315 63.7061 29.1176 63.7061 29.7139C63.7061 30.362 63.5051 30.9454 63.1033 31.4639C62.7144 31.9824 62.1311 32.3972 61.3533 32.7083C60.5885 33.0194 59.6357 33.175 58.495 33.175ZM71.0148 33.175C69.7703 33.175 68.6814 32.9417 67.7481 32.475C66.8277 31.9954 66.1083 31.3472 65.5898 30.5306C65.0842 29.7009 64.8314 28.7611 64.8314 27.7111C64.8314 26.6611 65.0777 25.7278 65.5703 24.9111C66.0759 24.0815 66.7694 23.4398 67.6509 22.9861C68.5323 22.5194 69.524 22.2861 70.6259 22.2861C71.6629 22.2861 72.6092 22.5 73.4648 22.9278C74.3203 23.3426 75.0009 23.9583 75.5064 24.775C76.012 25.5917 76.2648 26.5833 76.2648 27.75C76.2648 27.8796 76.2583 28.0287 76.2453 28.1972C76.2323 28.3657 76.2194 28.5213 76.2064 28.6639H67.8648V26.7194H74.2425L72.8425 27.2639C72.8555 26.7843 72.7648 26.3694 72.5703 26.0194C72.3888 25.6694 72.1296 25.3972 71.7925 25.2028C71.4685 25.0083 71.086 24.9111 70.6453 24.9111C70.2046 24.9111 69.8157 25.0083 69.4786 25.2028C69.1546 25.3972 68.9018 25.6759 68.7203 26.0389C68.5388 26.3889 68.4481 26.8037 68.4481 27.2833V27.8472C68.4481 28.3657 68.5518 28.813 68.7592 29.1889C68.9796 29.5648 69.2907 29.8565 69.6925 30.0639C70.0944 30.2583 70.574 30.3556 71.1314 30.3556C71.6499 30.3556 72.0907 30.2843 72.4536 30.1417C72.8296 29.9861 73.199 29.7528 73.562 29.4417L75.5064 31.4639C75.0009 32.0213 74.3786 32.4491 73.6398 32.7472C72.9009 33.0324 72.0259 33.175 71.0148 33.175Z" fill="black"/>
</svg>
