<svg width="207" height="200" viewBox="0 0 207 200" fill="none" xmlns="http://www.w3.org/2000/svg">
<path d="M149 189C149 195.075 144.075 200 138 200C131.925 200 127 195.075 127 189C127 182.925 131.925 178 138 178C144.075 178 149 182.925 149 189Z" fill="#1C5028"/>
<path d="M77 62C77 68.0751 72.0751 73 66 73C59.9249 73 55 68.0751 55 62C55 55.9249 59.9249 51 66 51C72.0751 51 77 55.9249 77 62Z" fill="#1C5028"/>
<circle cx="196" cy="133" r="11" fill="#F67770"/>
<circle cx="55" cy="155" r="11" fill="#F67770"/>
<circle cx="116" cy="122" r="11" fill="#24285B"/>
<circle cx="161" cy="62" r="11" fill="#24285B"/>
<circle cx="94" cy="11" r="11" fill="#24285B"/>
<circle cx="11" cy="84" r="11" fill="#24285B"/>
</svg>
