<svg width="160" height="160" viewBox="0 0 160 160" fill="none" xmlns="http://www.w3.org/2000/svg">
<path fill-rule="evenodd" clip-rule="evenodd" d="M27.039 107.952C18.089 91.0623 11.5759 70.8917 18.5462 53.6746C25.296 37.002 43.4943 29.5188 60.5462 25.187C74.5923 21.6188 88.7166 26.4511 102.375 32.379C115.412 38.0373 127.993 45.0699 135.32 57.6396C143.421 71.5371 148.674 88.3137 143.639 103.168C138.613 117.996 123.776 125.109 110.141 131.923C95.9603 139.009 81.0404 146.72 65.4707 142.229C48.6985 137.391 35.4655 123.855 27.039 107.952Z" fill="#F5F2D7"/>
<path d="M81.5258 103.134L129.546 77.9185C131.075 77.1548 132.385 75.9034 130.895 75.0825L82.7046 50.4065C81.9822 50.0085 80.8846 49.7473 80.1482 50.1279L29.7482 76.1198C28.2194 76.9085 27.945 79.1051 29.4682 79.9012L75.1978 103.089C76.1573 103.585 77.2455 103.85 78.3552 103.858C79.4648 103.865 80.5577 103.616 81.5258 103.134V103.134Z" fill="#FFB3A6"/>
<path style="mix-blend-mode:multiply" d="M60.6406 86.9067L53.0078 90.6707C53.0078 90.6707 60.1394 95.6661 63.3398 96.8702L70.981 92.8276" fill="url(#paint0_linear_9_1463)"/>
<path style="mix-blend-mode:multiply" d="M60.3298 71.8584L52.697 75.6224C52.697 75.6224 54.5254 78.1922 57.737 79.3863L65.9858 75.3437" fill="url(#paint1_linear_9_1463)"/>
<path style="mix-blend-mode:multiply" d="M101.616 86.7C101.616 86.7 110.842 82.1101 110.898 82.033L96.5646 75.6221L88.5034 79.7567L101.616 86.7Z" fill="url(#paint2_linear_9_1463)"/>
<path d="M112.2 67.9575L123.904 74.4032C124.011 74.4621 124.099 74.5448 124.16 74.6433C124.22 74.7417 124.25 74.8523 124.248 74.9644C124.245 75.0764 124.21 75.1859 124.145 75.2821C124.08 75.3782 123.988 75.4578 123.879 75.5127L106.115 84.4313C105.868 84.5577 105.588 84.6242 105.303 84.6242C105.018 84.6242 104.738 84.5577 104.491 84.4313L92.8406 78.3463C92.0006 77.7293 92.2302 76.8138 92.8406 76.5153L110.5 67.9376C110.759 67.8037 111.054 67.7349 111.353 67.7384C111.652 67.7419 111.945 67.8176 112.2 67.9575V67.9575Z" fill="#68E1FD"/>
<path d="M112.2 67.5146L123.904 73.9604C124.011 74.0193 124.099 74.102 124.16 74.2004C124.22 74.2988 124.25 74.4095 124.248 74.5215C124.245 74.6336 124.21 74.7431 124.145 74.8392C124.08 74.9354 123.989 75.0149 123.879 75.0699L106.118 83.9959C105.871 84.1223 105.591 84.1889 105.306 84.1889C105.021 84.1889 104.741 84.1223 104.494 83.9959L92.8435 77.9109C92.7069 77.8405 92.5935 77.7394 92.5147 77.6178C92.4359 77.4962 92.3944 77.3584 92.3944 77.2181C92.3944 77.0778 92.4359 76.9399 92.5147 76.8183C92.5935 76.6967 92.7069 76.5957 92.8435 76.5252L110.503 67.5047C110.76 67.3698 111.054 67.2995 111.353 67.3013C111.652 67.3031 111.944 67.3768 112.2 67.5146Z" fill="white"/>
<path d="M111.421 67.8628L123.184 74.4404L105.592 83.3838L93.4539 77.0426L111.421 67.8628Z" fill="#606060"/>
<path d="M98.7514 80.65C98.9818 80.65 99.1686 80.5721 99.1686 80.4759C99.1686 80.3797 98.9818 80.3018 98.7514 80.3018C98.521 80.3018 98.3342 80.3797 98.3342 80.4759C98.3342 80.5721 98.521 80.65 98.7514 80.65Z" fill="#383097"/>
<path style="mix-blend-mode:multiply" d="M111.855 78.7644C111.855 78.7644 113.387 76.2343 113.395 76.2219L113.132 76.105L109.879 77.7743L111.855 78.7644Z" fill="url(#paint3_linear_9_1463)"/>
<path d="M125.612 69.4326C125.608 69.4145 125.608 69.3959 125.612 69.3778C125.452 69.3036 125.28 69.2524 125.102 69.2261L114.182 75.0175C114.182 75.0175 113.527 75.4728 114.742 76.0873L125.827 70.2336C125.817 69.9564 125.743 69.684 125.612 69.4326V69.4326Z" fill="#CCCCCC"/>
<path d="M114.16 75.0151C114.16 75.0151 112.889 76.2789 112.866 76.361C112.844 76.4431 114.706 76.0849 114.706 76.0849" fill="#CCCCCC"/>
<path d="M125.787 70.2358C125.988 70.1328 126.001 69.8187 125.816 69.5343C125.632 69.25 125.319 69.103 125.118 69.206C124.917 69.309 124.904 69.6231 125.089 69.9075C125.274 70.1919 125.586 70.3389 125.787 70.2358Z" fill="#F2F2F2"/>
<path d="M70.4266 66.9375L75.013 68.9003C75.1854 68.9744 75.3318 69.0886 75.4367 69.2309C75.5416 69.3732 75.6009 69.5381 75.6084 69.7081C75.6159 69.878 75.5712 70.0466 75.4792 70.1957C75.3871 70.3449 75.2512 70.4689 75.0858 70.5547L64.2134 76.1894C63.9784 76.3111 63.6995 76.3475 63.4351 76.2909C63.1706 76.2344 62.9409 76.0893 62.7938 75.8859L60.1534 72.2414" fill="#56403D"/>
<path d="M45.4703 57.4989L82.0551 38.7737C82.306 38.6447 82.5908 38.5767 82.8807 38.5767C83.1706 38.5766 83.4554 38.6444 83.7064 38.7734C83.9574 38.9023 84.1658 39.0877 84.3104 39.3109C84.455 39.5342 84.5309 39.7873 84.5303 40.0449V59.524C84.5301 59.7378 84.4666 59.9478 84.3462 60.133C84.2258 60.3181 84.0527 60.4719 83.8443 60.5788L44.8487 80.5778C44.7141 80.6468 44.5614 80.6831 44.406 80.6831C44.2507 80.683 44.098 80.6466 43.9635 80.5776C43.8289 80.5085 43.7173 80.4091 43.6397 80.2895C43.5621 80.1699 43.5213 80.0342 43.5215 79.8961V60.4917C43.5224 59.8848 43.703 59.2889 44.045 58.7636C44.3871 58.2383 44.8786 57.8022 45.4703 57.4989Z" fill="#68E1FD"/>
<path d="M82.0494 40.2462L46.579 58.3794C46.2001 58.5732 45.8854 58.8523 45.6667 59.1886C45.4479 59.5249 45.3328 59.9065 45.333 60.2949V74.898C45.3334 75.0376 45.375 75.1747 45.4537 75.2956C45.5324 75.4165 45.6453 75.5169 45.7813 75.5869C45.9173 75.6569 46.0716 75.694 46.2288 75.6944C46.3859 75.6949 46.5405 75.6588 46.677 75.5896L82.853 57.1455C82.9882 57.0767 83.1005 56.9775 83.1787 56.8578C83.2569 56.7381 83.2981 56.6022 83.2982 56.4638V40.8955C83.2977 40.7657 83.2591 40.6382 83.1861 40.5258C83.1132 40.4133 83.0086 40.3196 82.8825 40.254C82.7564 40.1885 82.6132 40.1533 82.4671 40.1519C82.321 40.1505 82.177 40.183 82.0494 40.2462V40.2462Z" fill="white"/>
<path d="M68.0446 67.143C68.1367 66.7181 67.8729 66.3156 67.4553 66.2442C67.0377 66.1727 66.6245 66.4593 66.5324 66.8843C66.4403 67.3093 66.7041 67.7117 67.1217 67.7832C67.5393 67.8546 67.9525 67.568 68.0446 67.143Z" fill="#AB643C"/>
<path d="M83.8526 75.3584L93.423 80.217C93.523 80.2683 93.6061 80.3421 93.6638 80.4309C93.7216 80.5198 93.752 80.6206 93.752 80.7232C93.752 80.8258 93.7216 80.9266 93.6638 81.0155C93.6061 81.1044 93.523 81.1782 93.423 81.2295L66.8398 94.8175C66.5175 94.9826 66.152 95.0695 65.78 95.0695C65.408 95.0695 65.0425 94.9826 64.7202 94.8175L55.7602 90.2227C55.6562 90.1691 55.5698 90.0922 55.5098 89.9996C55.4497 89.9071 55.4181 89.8021 55.4181 89.6953C55.4181 89.5884 55.4497 89.4835 55.5098 89.3909C55.5698 89.2983 55.6562 89.2214 55.7602 89.1679L82.657 75.3634C82.8381 75.2689 83.0441 75.2187 83.2541 75.2178C83.4641 75.2169 83.6706 75.2654 83.8526 75.3584V75.3584Z" fill="#974C26"/>
<path d="M69.3906 83.1055L72.1234 84.5434L70.0962 85.5907C69.5362 85.2947 67.8842 84.4339 67.355 84.1578L69.3906 83.1055Z" fill="white"/>
<path d="M72.3839 81.5605L75.1167 82.9985L72.5491 84.3244C72.1011 84.0931 70.4463 83.2248 69.8079 82.8915L72.3839 81.5605Z" fill="white"/>
<path d="M83.259 75.9507L86.0338 77.3662L83.5642 78.6399C83.1722 78.4384 81.4978 77.5603 80.823 77.207L83.259 75.9507Z" fill="white"/>
<path d="M77.4127 78.958L80.1455 80.3959L78.1183 81.4408C77.6395 81.192 75.9903 80.3288 75.3771 80.0078L77.4127 78.958Z" fill="white"/>
<path d="M80.4058 77.4209L83.1386 78.8588L80.5598 80.1848C80.2574 80.0305 78.5382 79.13 77.8186 78.7518L80.4058 77.4209Z" fill="white"/>
<path d="M66.9378 84.3716L69.6706 85.8095L67.7302 86.8046C67.1478 86.5011 65.507 85.6428 64.989 85.3717L66.9378 84.3716Z" fill="white"/>
<path d="M74.9598 80.2319L77.6926 81.6698L75.545 82.7769C75.041 82.5281 73.3974 81.6549 72.8038 81.344L74.9598 80.2319Z" fill="white"/>
<path d="M64.5718 85.5933L67.3047 87.0312L64.7371 88.3571C64.1995 88.0785 62.5614 87.2202 61.9958 86.9242L64.5718 85.5933Z" fill="white"/>
<path d="M61.5758 87.1382L64.3087 88.5761L59.7027 90.9519L56.925 89.5364L61.5758 87.1382Z" fill="white"/>
<path d="M86.3894 77.7866L89.1642 79.2021L85.5774 81.053C85.107 80.8043 83.4578 79.946 82.8362 79.6201L86.3894 77.7866Z" fill="white"/>
<path d="M79.4231 81.3789L82.1559 82.8168L80.1287 83.8642C79.5855 83.583 77.9475 82.7248 77.3875 82.4312L79.4231 81.3789Z" fill="white"/>
<path d="M74.3999 83.9736L77.1327 85.4115L74.5651 86.7375C74.0499 86.4713 72.4091 85.6106 71.8239 85.3046L74.3999 83.9736Z" fill="white"/>
<path d="M76.9702 82.645L79.703 84.0829L77.5554 85.19C76.9954 84.8989 75.3518 84.0382 74.8142 83.757L76.9702 82.645Z" fill="white"/>
<path d="M71.4011 85.5186L74.1339 86.9565L72.1067 88.0038C71.4795 87.6779 69.8303 86.8122 69.3655 86.5709L71.4011 85.5186Z" fill="white"/>
<path d="M68.9482 86.7847L71.681 88.2226L69.7406 89.2177C69.1022 88.8868 67.4502 88.0186 66.9994 87.7847L68.9482 86.7847Z" fill="white"/>
<path d="M82.4162 79.834L85.149 81.2719L82.5814 82.5954C82.1754 82.3864 80.5038 81.5107 79.8402 81.1624L82.4162 79.834Z" fill="white"/>
<path d="M66.5822 88.0063L69.315 89.4443L66.7474 90.7702C66.1538 90.4618 64.5074 89.601 64.0062 89.3373L66.5822 88.0063Z" fill="white"/>
<path d="M66.319 90.9887L62.8302 92.7874L60.0554 91.3719L63.5862 89.5483L66.319 90.9887Z" fill="white"/>
<path d="M68.363 90.7427L70.3958 91.8149L68.0382 93.0264L65.9746 91.9741L68.363 90.7427Z" fill="white"/>
<path d="M67.5511 93.2777L65.5463 94.3102L63.4799 93.2603L65.5211 92.208L67.5511 93.2777Z" fill="white"/>
<path d="M89.811 79.6748L91.939 80.7221L89.5254 81.966L87.4366 80.8988L89.811 79.6748Z" fill="white"/>
<path d="M86.9858 81.1323L89.0382 82.2145L86.4622 83.5429L84.3762 82.4782L86.9858 81.1323Z" fill="white"/>
<path d="M83.9226 82.7124L85.9723 83.7946L70.8859 91.5613L68.8167 90.5065L83.9226 82.7124Z" fill="white"/>
<path style="mix-blend-mode:multiply" d="M90.6566 59.8027L86.7366 61.8601C86.7366 61.8601 87.9462 63.7458 90.9366 64.8603L95.4894 62.686" fill="url(#paint4_linear_9_1463)"/>
<path d="M93.8346 62.855C95.8372 62.855 97.4606 61.8392 97.4606 60.5862C97.4606 59.3332 95.8372 58.3174 93.8346 58.3174C91.832 58.3174 90.2086 59.3332 90.2086 60.5862C90.2086 61.8392 91.832 62.855 93.8346 62.855Z" fill="#68E1FD"/>
<path d="M93.8375 60.2331C95.3375 60.2331 96.5535 59.7909 96.5535 59.2454C96.5535 58.7 95.3375 58.2578 93.8375 58.2578C92.3375 58.2578 91.1215 58.7 91.1215 59.2454C91.1215 59.7909 92.3375 60.2331 93.8375 60.2331Z" fill="#974C26"/>
<path d="M94.0166 59.2677C94.2294 59.0015 94.445 58.7229 94.669 58.4095C94.949 58.0089 95.229 57.6009 95.4726 57.178C95.7017 56.8042 95.8973 56.4149 96.0578 56.0138C96.2362 55.5781 96.3794 55.1316 96.4862 54.6778C96.5142 54.5584 96.5366 54.4291 96.5618 54.3196C96.5618 54.2649 96.5618 54.2699 96.5618 54.2773C96.5618 54.2848 96.5618 54.24 96.5618 54.1728C96.587 53.9241 96.6038 53.6753 96.6066 53.4414C96.619 52.5954 96.4351 51.7561 96.0662 50.9761C95.0858 52.2393 94.4248 53.6761 94.1286 55.1878C94.1099 55.2774 94.0922 55.3678 94.0754 55.459C94.0754 55.459 94.0474 55.6232 94.0362 55.6904L94.0082 55.9167C93.9951 56.0312 93.983 56.1464 93.9718 56.2625C93.9326 56.7078 93.913 57.1531 93.9158 57.5985C93.9382 58.1557 93.9662 58.713 94.0166 59.2677ZM95.1702 52.6105C95.2355 52.5442 95.3037 52.4795 95.3746 52.4165C95.3602 52.4738 95.3602 52.5333 95.3746 52.5906C95.3066 52.5874 95.2385 52.5941 95.173 52.6105H95.1702Z" fill="#999A1C"/>
<path d="M94.0866 59.3052C94.1062 58.9793 94.1146 58.641 94.1118 58.2703C94.1118 57.7951 94.0866 57.3225 94.039 56.8498C94.0044 56.425 93.9323 56.0033 93.8234 55.5885C93.709 55.1359 93.5584 54.6911 93.3726 54.2576C93.3222 54.1431 93.2718 54.0312 93.2158 53.9192C93.1906 53.867 93.1962 53.872 93.2018 53.8794L93.1458 53.7874C93.017 53.571 92.8854 53.357 92.7398 53.1505C92.2341 52.4318 91.5669 51.8135 90.7798 51.3345C90.7229 52.8694 91.041 54.3971 91.7122 55.8124C91.7514 55.897 91.7915 55.9799 91.8326 56.0612L91.9418 56.2751L92.0566 56.4816C92.1145 56.5844 92.1742 56.6873 92.2358 56.7901C92.4738 57.1832 92.7286 57.5663 93.0002 57.9419C93.3418 58.4121 93.7058 58.8649 94.0866 59.3052ZM91.0066 53.1505C91.0215 53.0626 91.0393 52.9797 91.0598 52.9018C91.0786 52.9579 91.1111 53.0097 91.155 53.0535C91.1002 53.0799 91.0502 53.1134 91.0066 53.153V53.1505Z" fill="#999A1C"/>
<path d="M94.1035 59.4791C93.9943 59.2975 93.8767 59.1134 93.7423 58.9119C93.5687 58.6631 93.3839 58.4144 93.1823 58.1656C93.0067 57.9466 92.812 57.7403 92.5999 57.5486C92.3734 57.3369 92.1301 57.1399 91.8719 56.959L91.6759 56.8172C91.6423 56.7973 91.6479 56.7973 91.6535 56.7998L91.5891 56.765C91.4407 56.6854 91.2923 56.6082 91.1383 56.5386C90.6056 56.2954 90.0223 56.1522 89.4247 56.1182C89.9514 56.9618 90.6773 57.6942 91.5527 58.2651L91.7095 58.3671L91.8439 58.4517L91.9811 58.5288L92.1911 58.6432C92.4617 58.7875 92.7417 58.9219 93.0311 59.0462C93.3755 59.2079 93.7367 59.3497 94.1035 59.4791ZM90.2059 57.0411C90.1816 56.9897 90.1592 56.9375 90.1387 56.8844C90.1691 56.9094 90.2055 56.9281 90.2451 56.9391C90.2261 56.9711 90.2129 57.0055 90.2059 57.0411V57.0411Z" fill="#999A1C"/>
<path d="M94.0166 59.2677C94.2294 59.0015 94.445 58.7229 94.669 58.4095C94.949 58.0089 95.229 57.6009 95.4726 57.178C95.7017 56.8042 95.8973 56.4149 96.0578 56.0138C96.2362 55.5781 96.3794 55.1316 96.4862 54.6778C96.5142 54.5584 96.5366 54.4291 96.5618 54.3196C96.5618 54.2649 96.5618 54.2699 96.5618 54.2773C96.5618 54.2848 96.5618 54.24 96.5618 54.1728C96.587 53.9241 96.6038 53.6753 96.6066 53.4414C96.619 52.5954 96.4351 51.7561 96.0662 50.9761C95.0858 52.2393 94.4248 53.6761 94.1286 55.1878C94.1099 55.2774 94.0922 55.3678 94.0754 55.459C94.0754 55.459 94.0474 55.6232 94.0362 55.6904L94.0082 55.9167C93.9951 56.0312 93.983 56.1464 93.9718 56.2625C93.9326 56.7078 93.913 57.1531 93.9158 57.5985C93.9382 58.1557 93.9662 58.713 94.0166 59.2677ZM95.1702 52.6105C95.2355 52.5442 95.3037 52.4795 95.3746 52.4165C95.3602 52.4738 95.3602 52.5333 95.3746 52.5906C95.3066 52.5874 95.2385 52.5941 95.173 52.6105H95.1702Z" fill="#999A1C"/>
<path d="M94.0866 59.3052C94.1062 58.9793 94.1146 58.641 94.1118 58.2703C94.1118 57.7951 94.0866 57.3225 94.039 56.8498C94.0044 56.425 93.9323 56.0033 93.8234 55.5885C93.709 55.1359 93.5584 54.6911 93.3726 54.2576C93.3222 54.1431 93.2718 54.0312 93.2158 53.9192C93.1906 53.867 93.1962 53.872 93.2018 53.8794L93.1458 53.7874C93.017 53.571 92.8854 53.357 92.7398 53.1505C92.2341 52.4318 91.5669 51.8135 90.7798 51.3345C90.7229 52.8694 91.041 54.3971 91.7122 55.8124C91.7514 55.897 91.7915 55.9799 91.8326 56.0612L91.9418 56.2751L92.0566 56.4816C92.1145 56.5844 92.1742 56.6873 92.2358 56.7901C92.4738 57.1832 92.7286 57.5663 93.0002 57.9419C93.3418 58.4121 93.7058 58.8649 94.0866 59.3052ZM91.0066 53.1505C91.0215 53.0626 91.0393 52.9797 91.0598 52.9018C91.0786 52.9579 91.1111 53.0097 91.155 53.0535C91.1002 53.0799 91.0502 53.1134 91.0066 53.153V53.1505Z" fill="#999A1C"/>
<path d="M94.1035 59.4791C93.9943 59.2975 93.8767 59.1134 93.7423 58.9119C93.5687 58.6631 93.3839 58.4144 93.1823 58.1656C93.0067 57.9466 92.812 57.7403 92.5999 57.5486C92.3734 57.3369 92.1301 57.1399 91.8719 56.959L91.6759 56.8172C91.6423 56.7973 91.6479 56.7973 91.6535 56.7998L91.5891 56.765C91.4407 56.6854 91.2923 56.6082 91.1383 56.5386C90.6056 56.2954 90.0223 56.1522 89.4247 56.1182C89.9514 56.9618 90.6773 57.6942 91.5527 58.2651L91.7095 58.3671L91.8439 58.4517L91.9811 58.5288L92.1911 58.6432C92.4617 58.7875 92.7417 58.9219 93.0311 59.0462C93.3755 59.2079 93.7367 59.3497 94.1035 59.4791ZM90.2059 57.0411C90.1816 56.9897 90.1592 56.9375 90.1387 56.8844C90.1691 56.9094 90.2055 56.9281 90.2451 56.9391C90.2261 56.9711 90.2129 57.0055 90.2059 57.0411V57.0411Z" fill="#999A1C"/>
<path d="M53.0414 69.2014L65.9746 63.089L58.213 56.5039L53.0414 69.2014Z" fill="#E88831"/>
<path d="M76.0518 54.7577C78.7704 54.7577 80.9742 52.7996 80.9742 50.3842C80.9742 47.9688 78.7704 46.0107 76.0518 46.0107C73.3332 46.0107 71.1294 47.9688 71.1294 50.3842C71.1294 52.7996 73.3332 54.7577 76.0518 54.7577Z" fill="#7ACC92"/>
<path d="M50.3198 60.606C49.5358 60.208 48.8302 61.2827 49.6142 61.6807C52.0474 62.9246 50.0986 65.6313 48.287 66.4074C47.475 66.7532 48.1834 67.8279 48.9926 67.4821C51.8206 66.2706 53.6798 62.2902 50.3198 60.606Z" fill="#56403D"/>
<path d="M72.7198 57.5638C71.975 54.4715 67.2906 56.3696 68.1054 59.1733C68.4582 60.3874 69.9478 61.0939 71.2358 60.4918C71.7989 60.205 72.2455 59.7674 72.512 59.2415C72.7785 58.7157 72.8513 58.1285 72.7198 57.5638V57.5638ZM71.3702 58.3399C71.3406 58.5696 71.2463 58.7889 71.096 58.9776C70.9458 59.1663 70.7445 59.3183 70.5106 59.4196C69.441 59.7828 69.4662 58.5763 69.7294 57.9991C70.1998 56.9294 71.5998 57.0662 71.3646 58.3499L71.3702 58.3399Z" fill="#56403D"/>
<path d="M70.5526 97.3006C70.5813 97.1397 70.654 96.9875 70.7643 96.8574C70.8746 96.7272 71.0192 96.6232 71.1854 96.5543L73.2154 95.5144L76.3514 93.8999L80.0978 91.9719L84.085 89.922L87.9406 87.9318L91.3006 86.2078L93.7786 84.934L95.0806 84.2648C95.0806 84.2897 95.1254 84.2897 95.1534 84.2822C95.308 84.2487 95.4697 84.2512 95.623 84.2893C95.7762 84.3274 95.9158 84.4 96.0284 84.5C96.1409 84.5999 96.2225 84.724 96.2655 84.8601C96.3084 84.9963 96.3111 85.14 96.2734 85.2773C96.1222 85.7998 95.621 86.26 95.1534 86.5784C93.6374 87.5455 92.0551 88.4278 90.4158 89.2204V88.7005C91.519 88.1631 93.899 86.9591 94.8958 86.0386L94.4198 86.2874L93.1094 86.969L91.1354 87.994L88.6714 89.2727L85.8798 90.733L82.951 92.253L80.0502 93.7581L77.351 95.1611L75.0354 96.3727L73.2518 97.2981C72.7086 97.5817 72.1178 97.9648 71.485 98.0743C71.3656 98.0818 71.2457 98.0674 71.1328 98.0319C71.02 97.9964 70.9165 97.9406 70.829 97.868C70.7415 97.7954 70.6718 97.7075 70.6243 97.6099C70.5767 97.5123 70.5523 97.407 70.5526 97.3006V97.3006Z" fill="#68E1FD"/>
<path style="mix-blend-mode:multiply" d="M86.4231 70.7734L82.2399 72.9875C82.2399 72.9875 84.9867 75.326 88.1871 76.5226L92.0763 74.2662" fill="url(#paint5_linear_9_1463)"/>
<path d="M86.0226 69.1937V70.9326L92.0678 74.2587L99.3254 70.3181V68.8354" fill="#E54C3C"/>
<path d="M99.3254 68.8354L93.1626 65.5591L86.0226 69.1937L92.1854 72.5198L99.3254 68.8354Z" fill="#F5604B"/>
<defs>
<linearGradient id="paint0_linear_9_1463" x1="69.6202" y1="86.2301" x2="59.8837" y2="95.1491" gradientUnits="userSpaceOnUse">
<stop stop-color="#D4A397"/>
<stop offset="1" stop-color="white"/>
</linearGradient>
<linearGradient id="paint1_linear_9_1463" x1="65.7982" y1="70.8111" x2="57.5272" y2="78.3883" gradientUnits="userSpaceOnUse">
<stop stop-color="#D4A397"/>
<stop offset="1" stop-color="white"/>
</linearGradient>
<linearGradient id="paint2_linear_9_1463" x1="102.923" y1="76.6769" x2="98.2995" y2="84.3434" gradientUnits="userSpaceOnUse">
<stop offset="0.01" stop-color="#4D4D4D"/>
<stop offset="1" stop-color="white"/>
</linearGradient>
<linearGradient id="paint3_linear_9_1463" x1="112.827" y1="75.7045" x2="111.317" y2="78.2093" gradientUnits="userSpaceOnUse">
<stop offset="0.01" stop-color="#4D4D4D"/>
<stop offset="1" stop-color="white"/>
</linearGradient>
<linearGradient id="paint4_linear_9_1463" x1="93.311" y1="60.146" x2="89.8866" y2="64.3689" gradientUnits="userSpaceOnUse">
<stop stop-color="#78B46A"/>
<stop offset="0.03" stop-color="#7F3500"/>
<stop offset="1" stop-color="white"/>
</linearGradient>
<linearGradient id="paint5_linear_9_1463" x1="91.2811" y1="70.6316" x2="86.0094" y2="75.4627" gradientUnits="userSpaceOnUse">
<stop stop-color="#D4A397"/>
<stop offset="1" stop-color="white"/>
</linearGradient>
</defs>
</svg>
