<svg width="810" height="676" viewBox="0 0 810 676" fill="none" xmlns="http://www.w3.org/2000/svg">
<rect x="0.799911" y="3.4447" width="806" height="672" transform="rotate(-0.205081 0.799911 3.4447)" fill="url(#paint0_linear_4_867)" fill-opacity="0.3"/>
<g clip-path="url(#clip0_4_867)">
<path d="M364.884 580.799L644.429 393.193C653.328 387.511 660.957 378.201 652.285 372.093L371.746 188.504C367.54 185.543 361.151 183.599 356.864 186.431L63.4639 379.811C54.5641 385.679 52.9667 402.022 61.8339 407.945L328.046 580.466C333.631 584.152 339.966 586.122 346.426 586.18C352.886 586.238 359.247 584.384 364.884 580.799V580.799Z" fill="#FFB3A6"/>
<path style="mix-blend-mode:multiply" d="M243.302 460.066L198.868 488.07C198.868 488.07 240.384 525.235 259.015 534.194L303.498 504.117" fill="url(#paint1_linear_4_867)"/>
<path style="mix-blend-mode:multiply" d="M241.492 348.106L197.059 376.11C197.059 376.11 207.703 395.229 226.399 404.114L274.418 374.037" fill="url(#paint2_linear_4_867)"/>
<path style="mix-blend-mode:multiply" d="M481.836 458.53C481.836 458.53 535.545 424.381 535.871 423.807L452.431 376.11L405.503 406.871L481.836 458.53Z" fill="url(#paint3_linear_4_867)"/>
<path d="M543.45 319.084L611.584 367.04C612.209 367.479 612.722 368.094 613.073 368.826C613.424 369.558 613.601 370.382 613.586 371.215C613.571 372.049 613.365 372.864 612.988 373.579C612.612 374.295 612.077 374.886 611.437 375.295L508.03 441.649C506.592 442.59 504.962 443.085 503.303 443.085C501.644 443.085 500.014 442.59 498.576 441.649L430.752 396.377C425.862 391.787 427.198 384.975 430.752 382.754L533.556 318.936C535.062 317.94 536.778 317.428 538.521 317.454C540.264 317.48 541.967 318.044 543.45 319.084V319.084Z" fill="#68E1FD"/>
<path d="M543.45 315.789L611.584 363.746C612.209 364.184 612.722 364.799 613.073 365.532C613.424 366.264 613.601 367.087 613.586 367.921C613.571 368.754 613.365 369.569 612.988 370.284C612.612 371 612.077 371.591 611.437 372.001L508.046 438.41C506.609 439.351 504.979 439.846 503.319 439.846C501.66 439.846 500.03 439.351 498.592 438.41L430.768 393.138C429.973 392.614 429.313 391.862 428.854 390.957C428.395 390.053 428.154 389.027 428.154 387.983C428.154 386.939 428.395 385.914 428.854 385.009C429.313 384.104 429.973 383.352 430.768 382.828L533.572 315.715C535.071 314.712 536.781 314.189 538.52 314.202C540.26 314.215 541.963 314.764 543.45 315.789Z" fill="white"/>
<path d="M538.919 318.381L607.395 367.318L504.982 433.857L434.322 386.678L538.919 318.381Z" fill="#606060"/>
<path d="M465.161 413.516C466.502 413.516 467.59 412.936 467.59 412.22C467.59 411.505 466.502 410.925 465.161 410.925C463.82 410.925 462.732 411.505 462.732 412.22C462.732 412.936 463.82 413.516 465.161 413.516Z" fill="#383097"/>
<path style="mix-blend-mode:multiply" d="M541.445 399.486C541.445 399.486 550.361 380.663 550.41 380.57L548.878 379.7L529.937 392.12L541.445 399.486Z" fill="url(#paint4_linear_4_867)"/>
<path d="M621.527 330.06C621.504 329.925 621.504 329.787 621.527 329.653C620.597 329.1 619.596 328.719 618.56 328.524L554.99 371.612C554.99 371.612 551.176 374.999 558.25 379.571L622.782 336.02C622.72 333.958 622.293 331.931 621.527 330.06V330.06Z" fill="#CCCCCC"/>
<path d="M554.86 371.594C554.86 371.594 547.46 380.996 547.329 381.607C547.199 382.218 558.039 379.552 558.039 379.552" fill="#CCCCCC"/>
<path d="M622.549 336.034C623.718 335.268 623.794 332.931 622.719 330.815C621.643 328.699 619.823 327.606 618.653 328.372C617.484 329.139 617.408 331.476 618.484 333.592C619.559 335.707 621.38 336.801 622.549 336.034Z" fill="#F2F2F2"/>
<path d="M300.27 311.495L326.97 326.099C327.973 326.65 328.826 327.5 329.436 328.558C330.047 329.617 330.392 330.844 330.436 332.109C330.479 333.373 330.219 334.627 329.683 335.737C329.147 336.846 328.356 337.769 327.393 338.407L264.101 380.33C262.732 381.235 261.109 381.506 259.569 381.085C258.03 380.664 256.692 379.585 255.836 378.072L240.466 350.956" fill="#56403D"/>
<path d="M154.988 241.273L367.964 101.957C369.425 100.997 371.083 100.492 372.771 100.491C374.458 100.491 376.116 100.995 377.577 101.955C379.039 102.914 380.251 104.293 381.093 105.954C381.935 107.615 382.377 109.499 382.373 111.415V256.339C382.372 257.93 382.003 259.493 381.302 260.87C380.601 262.248 379.593 263.391 378.38 264.187L151.37 412.979C150.586 413.493 149.698 413.763 148.793 413.763C147.888 413.763 147 413.492 146.217 412.978C145.433 412.464 144.783 411.724 144.332 410.834C143.88 409.944 143.643 408.935 143.644 407.908V263.539C143.649 259.024 144.7 254.59 146.691 250.682C148.683 246.774 151.544 243.529 154.988 241.273Z" fill="#68E1FD"/>
<path d="M367.932 112.914L161.443 247.825C159.237 249.267 157.405 251.343 156.132 253.846C154.859 256.348 154.189 259.187 154.19 262.077V370.724C154.192 371.762 154.434 372.782 154.892 373.682C155.35 374.581 156.008 375.328 156.8 375.849C157.591 376.37 158.489 376.646 159.404 376.649C160.319 376.653 161.219 376.384 162.014 375.869L372.61 238.645C373.397 238.133 374.051 237.395 374.506 236.504C374.961 235.614 375.201 234.603 375.201 233.573V117.745C375.198 116.779 374.973 115.831 374.549 114.994C374.125 114.157 373.515 113.46 372.781 112.973C372.047 112.485 371.214 112.223 370.363 112.213C369.513 112.202 368.675 112.444 367.932 112.914V112.914Z" fill="white"/>
<path d="M286.404 313.025C286.94 309.863 285.404 306.869 282.973 306.337C280.542 305.806 278.137 307.938 277.6 311.1C277.064 314.262 278.6 317.256 281.031 317.787C283.462 318.319 285.867 316.187 286.404 313.025Z" fill="#AB643C"/>
<path d="M378.429 374.148L434.142 410.295C434.724 410.677 435.208 411.226 435.544 411.887C435.88 412.549 436.057 413.299 436.057 414.062C436.057 414.825 435.88 415.575 435.544 416.237C435.208 416.898 434.724 417.447 434.142 417.829L279.39 518.924C277.514 520.152 275.386 520.798 273.22 520.798C271.055 520.798 268.927 520.152 267.051 518.924L214.891 484.738C214.285 484.34 213.782 483.767 213.433 483.079C213.083 482.39 212.899 481.609 212.899 480.814C212.899 480.019 213.083 479.238 213.433 478.55C213.782 477.861 214.285 477.289 214.891 476.89L371.469 374.185C372.523 373.482 373.722 373.108 374.944 373.102C376.167 373.095 377.369 373.456 378.429 374.148V374.148Z" fill="#974C26"/>
<path d="M294.239 431.784L310.148 442.482L298.347 450.275C295.087 448.072 285.47 441.668 282.389 439.613L294.239 431.784Z" fill="white"/>
<path d="M311.664 420.29L327.573 430.988L312.626 440.854C310.018 439.132 300.384 432.673 296.668 430.192L311.664 420.29Z" fill="white"/>
<path d="M374.973 378.553L391.127 389.084L376.75 398.561C374.468 397.062 364.721 390.528 360.792 387.9L374.973 378.553Z" fill="white"/>
<path d="M340.939 400.93L356.848 411.628L345.046 419.402C342.259 417.551 332.658 411.128 329.089 408.741L340.939 400.93Z" fill="white"/>
<path d="M358.363 389.492L374.272 400.19L359.26 410.055C357.5 408.907 347.491 402.207 343.302 399.394L358.363 389.492Z" fill="white"/>
<path d="M279.961 441.205L295.869 451.903L284.573 459.307C281.183 457.049 271.631 450.663 268.616 448.646L279.961 441.205Z" fill="white"/>
<path d="M326.66 410.406L342.569 421.105L330.067 429.341C327.133 427.49 317.565 420.994 314.109 418.68L326.66 410.406Z" fill="white"/>
<path d="M266.187 450.293L282.096 460.991L267.149 470.856C264.019 468.783 254.484 462.398 251.191 460.195L266.187 450.293Z" fill="white"/>
<path d="M248.746 461.787L264.655 472.485L237.841 490.161L221.672 479.63L248.746 461.787Z" fill="white"/>
<path d="M393.197 392.212L409.35 402.744L388.47 416.514C385.731 414.664 376.131 408.278 372.512 405.853L393.197 392.212Z" fill="white"/>
<path d="M352.642 418.939L368.551 429.637L356.75 437.429C353.588 435.338 344.052 428.952 340.792 426.768L352.642 418.939Z" fill="white"/>
<path d="M323.4 438.244L339.309 448.942L324.362 458.807C321.362 456.827 311.811 450.423 308.404 448.146L323.4 438.244Z" fill="white"/>
<path d="M338.363 428.36L354.272 439.058L341.77 447.295C338.51 445.129 328.942 438.725 325.812 436.634L338.363 428.36Z" fill="white"/>
<path d="M305.943 449.738L321.852 460.436L310.05 468.228C306.399 465.803 296.798 459.362 294.093 457.567L305.943 449.738Z" fill="white"/>
<path d="M291.664 459.159L307.573 469.857L296.277 477.26C292.56 474.799 282.943 468.339 280.319 466.599L291.664 459.159Z" fill="white"/>
<path d="M370.067 407.445L385.976 418.143L371.029 427.99C368.665 426.435 358.934 419.92 355.071 417.329L370.067 407.445Z" fill="white"/>
<path d="M277.89 468.247L293.799 478.945L278.852 488.81C275.397 486.515 265.812 480.111 262.894 478.149L277.89 468.247Z" fill="white"/>
<path d="M276.358 490.439L256.048 503.821L239.895 493.289L260.449 479.722L276.358 490.439Z" fill="white"/>
<path d="M288.257 488.606L300.091 496.584L286.366 505.597L274.353 497.768L288.257 488.606Z" fill="white"/>
<path d="M283.53 507.467L271.859 515.148L259.83 507.337L271.713 499.508L283.53 507.467Z" fill="white"/>
<path d="M413.115 406.26L425.503 414.053L411.453 423.307L399.293 415.367L413.115 406.26Z" fill="white"/>
<path d="M396.669 417.107L408.616 425.158L393.62 435.042L381.477 427.12L396.669 417.107Z" fill="white"/>
<path d="M378.836 428.86L390.768 436.911L302.943 494.696L290.898 486.848L378.836 428.86Z" fill="white"/>
<path style="mix-blend-mode:multiply" d="M418.038 258.412L395.218 273.719C395.218 273.719 402.259 287.749 419.668 296.041L446.172 279.864" fill="url(#paint5_linear_4_867)"/>
<path d="M436.538 281.122C448.196 281.122 457.647 273.565 457.647 264.242C457.647 254.92 448.196 247.362 436.538 247.362C424.88 247.362 415.43 254.92 415.43 264.242C415.43 273.565 424.88 281.122 436.538 281.122Z" fill="#68E1FD"/>
<path d="M436.555 261.614C445.287 261.614 452.366 258.324 452.366 254.266C452.366 250.208 445.287 246.918 436.555 246.918C427.822 246.918 420.744 250.208 420.744 254.266C420.744 258.324 427.822 261.614 436.555 261.614Z" fill="#974C26"/>
<path d="M437.598 254.433C438.837 252.452 440.092 250.379 441.396 248.047C443.026 245.067 444.656 242.032 446.074 238.885C447.407 236.104 448.546 233.207 449.48 230.223C450.519 226.982 451.353 223.66 451.974 220.284C452.137 219.396 452.268 218.433 452.414 217.619C452.414 217.211 452.414 217.248 452.414 217.304C452.414 217.36 452.414 217.026 452.414 216.527C452.561 214.676 452.659 212.825 452.675 211.085C452.748 204.79 451.677 198.546 449.529 192.743C443.822 202.141 439.974 212.831 438.25 224.078C438.141 224.745 438.038 225.417 437.94 226.096C437.94 226.096 437.777 227.317 437.712 227.817L437.549 229.501C437.473 230.353 437.402 231.21 437.337 232.074C437.109 235.387 436.995 238.7 437.011 242.013C437.141 246.159 437.304 250.305 437.598 254.433ZM444.313 204.903C444.694 204.41 445.09 203.928 445.503 203.459C445.42 203.886 445.42 204.328 445.503 204.755C445.108 204.731 444.711 204.781 444.33 204.903H444.313Z" fill="#999A1C"/>
<path d="M438.005 254.71C438.119 252.286 438.168 249.768 438.152 247.011C438.152 243.475 438.005 239.959 437.728 236.442C437.527 233.282 437.107 230.144 436.473 227.058C435.807 223.691 434.93 220.381 433.849 217.156C433.555 216.305 433.262 215.472 432.936 214.639C432.789 214.25 432.822 214.287 432.854 214.343L432.528 213.658C431.779 212.048 431.013 210.456 430.165 208.92C427.221 203.572 423.337 198.972 418.755 195.408C418.424 206.828 420.276 218.194 424.183 228.724C424.411 229.353 424.645 229.97 424.884 230.575L425.519 232.167L426.188 233.703C426.525 234.468 426.872 235.233 427.231 235.998C428.616 238.922 430.1 241.773 431.681 244.568C433.669 248.066 435.788 251.434 438.005 254.71ZM420.075 208.92C420.162 208.266 420.265 207.649 420.385 207.069C420.495 207.487 420.684 207.872 420.939 208.198C420.62 208.394 420.329 208.643 420.075 208.938V208.92Z" fill="#999A1C"/>
<path d="M438.103 256.006C437.467 254.655 436.783 253.285 436 251.786C434.99 249.935 433.914 248.084 432.74 246.233C431.718 244.604 430.585 243.07 429.35 241.643C428.031 240.068 426.615 238.602 425.112 237.256L423.971 236.201C423.775 236.053 423.808 236.053 423.841 236.072L423.466 235.813C422.602 235.22 421.738 234.647 420.841 234.128C417.741 232.319 414.345 231.254 410.866 231C413.932 237.277 418.158 242.726 423.254 246.974L424.167 247.732L424.949 248.362L425.748 248.936L426.97 249.787C428.546 250.86 430.176 251.86 431.86 252.785C433.865 253.988 435.968 255.043 438.103 256.006ZM415.413 237.867C415.272 237.485 415.142 237.096 415.022 236.701C415.2 236.887 415.411 237.026 415.642 237.108C415.531 237.346 415.454 237.602 415.413 237.867V237.867Z" fill="#999A1C"/>
<path d="M437.598 254.433C438.837 252.452 440.092 250.379 441.396 248.047C443.026 245.067 444.656 242.032 446.074 238.885C447.407 236.104 448.546 233.207 449.48 230.223C450.519 226.982 451.353 223.66 451.974 220.284C452.137 219.396 452.268 218.433 452.414 217.619C452.414 217.211 452.414 217.248 452.414 217.304C452.414 217.36 452.414 217.026 452.414 216.527C452.561 214.676 452.659 212.825 452.675 211.085C452.748 204.79 451.677 198.546 449.529 192.743C443.822 202.141 439.974 212.831 438.25 224.078C438.141 224.745 438.038 225.417 437.94 226.096C437.94 226.096 437.777 227.317 437.712 227.817L437.549 229.501C437.473 230.353 437.402 231.21 437.337 232.074C437.109 235.387 436.995 238.7 437.011 242.013C437.141 246.159 437.304 250.305 437.598 254.433ZM444.313 204.903C444.694 204.41 445.09 203.928 445.503 203.459C445.42 203.886 445.42 204.328 445.503 204.755C445.108 204.731 444.711 204.781 444.33 204.903H444.313Z" fill="#999A1C"/>
<path d="M438.005 254.71C438.119 252.286 438.168 249.768 438.152 247.011C438.152 243.475 438.005 239.959 437.728 236.442C437.527 233.282 437.107 230.144 436.473 227.058C435.807 223.691 434.93 220.381 433.849 217.156C433.555 216.305 433.262 215.472 432.936 214.639C432.789 214.25 432.822 214.287 432.854 214.343L432.528 213.658C431.779 212.048 431.013 210.456 430.165 208.92C427.221 203.572 423.337 198.972 418.755 195.408C418.424 206.828 420.276 218.194 424.183 228.724C424.411 229.353 424.645 229.97 424.884 230.575L425.519 232.167L426.188 233.703C426.525 234.468 426.872 235.233 427.231 235.998C428.616 238.922 430.1 241.773 431.681 244.568C433.669 248.066 435.788 251.434 438.005 254.71ZM420.075 208.92C420.162 208.266 420.265 207.649 420.385 207.069C420.495 207.487 420.684 207.872 420.939 208.198C420.62 208.394 420.329 208.643 420.075 208.938V208.92Z" fill="#999A1C"/>
<path d="M438.103 256.006C437.467 254.655 436.783 253.285 436 251.786C434.99 249.935 433.914 248.084 432.74 246.233C431.718 244.604 430.585 243.07 429.35 241.643C428.031 240.068 426.615 238.602 425.112 237.256L423.971 236.201C423.775 236.053 423.808 236.053 423.841 236.072L423.466 235.813C422.602 235.22 421.738 234.647 420.841 234.128C417.741 232.319 414.345 231.254 410.866 231C413.932 237.277 418.158 242.726 423.254 246.974L424.167 247.732L424.949 248.362L425.748 248.936L426.97 249.787C428.546 250.86 430.176 251.86 431.86 252.785C433.865 253.988 435.968 255.043 438.103 256.006ZM415.413 237.867C415.272 237.485 415.142 237.096 415.022 236.701C415.2 236.887 415.411 237.026 415.642 237.108C415.531 237.346 415.454 237.602 415.413 237.867V237.867Z" fill="#999A1C"/>
<path d="M199.064 328.338L274.353 282.862L229.17 233.869L199.064 328.338Z" fill="#E88831"/>
<path d="M333.017 220.876C348.843 220.876 361.672 206.308 361.672 188.338C361.672 170.367 348.843 155.799 333.017 155.799C317.191 155.799 304.362 170.367 304.362 188.338C304.362 206.308 317.191 220.876 333.017 220.876Z" fill="#7ACC92"/>
<path d="M183.22 264.39C178.656 261.429 174.548 269.425 179.112 272.386C193.277 281.641 181.932 301.778 171.386 307.553C166.659 310.126 170.783 318.121 175.494 315.549C191.957 306.535 202.78 276.921 183.22 264.39Z" fill="#56403D"/>
<path d="M313.62 241.754C309.284 218.748 282.014 232.87 286.758 253.729C288.811 262.762 297.483 268.018 304.981 263.539C308.259 261.405 310.859 258.149 312.41 254.237C313.962 250.325 314.385 245.956 313.62 241.754V241.754ZM305.763 247.529C305.591 249.237 305.042 250.869 304.167 252.273C303.293 253.677 302.121 254.808 300.759 255.562C294.533 258.264 294.679 249.287 296.212 244.993C298.95 237.034 307.1 238.052 305.731 247.603L305.763 247.529Z" fill="#56403D"/>
<path d="M301.004 537.396C301.171 536.198 301.594 535.066 302.236 534.098C302.878 533.13 303.72 532.355 304.688 531.843L316.505 524.106L334.761 512.094L356.57 497.75L379.782 482.498L402.227 467.691L421.787 454.865L436.212 445.388L443.792 440.409C443.792 440.594 444.053 440.594 444.216 440.539C445.116 440.29 446.057 440.308 446.949 440.592C447.841 440.875 448.654 441.415 449.309 442.159C449.964 442.903 450.439 443.826 450.689 444.839C450.939 445.852 450.955 446.92 450.736 447.942C449.855 451.829 446.938 455.253 444.216 457.623C435.39 464.817 426.179 471.382 416.636 477.279V473.411C423.058 469.413 436.913 460.454 442.716 453.606L439.945 455.457L432.317 460.528L420.825 468.154L406.481 477.668L390.23 488.532L373.18 499.841L356.293 511.039L340.58 521.478L327.1 530.492L316.717 537.377C313.555 539.487 310.115 542.337 306.432 543.152C305.736 543.208 305.038 543.1 304.381 542.836C303.724 542.572 303.122 542.157 302.613 541.617C302.104 541.077 301.698 540.423 301.421 539.697C301.144 538.97 301.002 538.187 301.004 537.396V537.396Z" fill="#68E1FD"/>
<path style="mix-blend-mode:multiply" d="M393.392 340.036L369.04 356.509C369.04 356.509 385.03 373.907 403.661 382.81L426.302 366.022" fill="url(#paint6_linear_4_867)"/>
<path d="M391.061 328.283V341.221L426.253 365.967L468.503 336.649V325.618" fill="#E54C3C"/>
<path d="M468.503 325.618L432.626 301.241L391.061 328.283L426.938 353.029L468.503 325.618Z" fill="#F5604B"/>
<path d="M364.379 594.146L536.654 708.345C538.88 709.822 541.411 710.6 543.989 710.6C546.567 710.6 549.098 709.822 551.324 708.345L756.916 573.564C759.134 572.117 760.976 570.032 762.258 567.519C763.539 565.005 764.214 562.152 764.214 559.247C764.214 556.343 763.539 553.49 762.258 550.976C760.976 548.463 759.134 546.377 756.916 544.931L582.506 432.027C580.303 430.592 577.808 429.836 575.269 429.836C572.729 429.836 570.234 430.592 568.031 432.027L364.444 565.513C362.223 566.953 360.376 569.033 359.088 571.542C357.801 574.052 357.12 576.903 357.113 579.808C357.107 582.712 357.775 585.567 359.051 588.085C360.326 590.602 362.164 592.693 364.379 594.146Z" fill="#AA29A4"/>
<path d="M518.61 236.592C496.034 251.788 440.174 289.324 423.467 300.355C422.042 301.295 420.862 302.647 420.046 304.272C419.231 305.897 418.808 307.739 418.821 309.61V570.047C418.479 575.359 423.711 580.283 428.08 577.451L522.016 516.723C525.798 514.262 528.21 510.801 528.21 505.859V242.793C528.209 241.519 527.911 240.268 527.347 239.168C526.782 238.067 525.971 237.156 524.996 236.526C524.021 235.896 522.917 235.571 521.795 235.582C520.673 235.594 519.574 235.942 518.61 236.592V236.592Z" fill="#172D51"/>
<path d="M527.575 239.757L497.746 259.266V266.521C497.746 267.132 497.605 267.733 497.336 268.263C497.067 268.793 496.68 269.232 496.214 269.538L473.394 284.549C473.087 284.75 472.739 284.856 472.385 284.856C472.03 284.856 471.682 284.751 471.375 284.55C471.068 284.35 470.813 284.061 470.635 283.713C470.457 283.365 470.363 282.971 470.362 282.568V277.256L427.313 305.834C426.906 306.108 426.568 306.498 426.334 306.965C426.099 307.432 425.976 307.961 425.977 308.499V568.807C425.973 569.18 426.056 569.546 426.218 569.87C426.38 570.195 426.614 570.464 426.897 570.652C427.18 570.84 427.502 570.94 427.83 570.941C428.158 570.942 428.48 570.844 428.764 570.658L528.194 505.211C528.352 507.22 528.03 509.239 527.261 511.057C526.492 512.875 525.305 514.424 523.826 515.539C518.675 519.241 428.08 577.469 428.08 577.469C428.08 577.469 420.924 581.171 418.821 571.435V309.591C418.816 307.88 419.171 306.193 419.857 304.67C420.543 303.147 421.541 301.832 422.766 300.836C426.922 297.412 518.675 236.518 518.675 236.518C519.444 236.054 520.287 235.769 521.155 235.681C522.023 235.592 522.897 235.702 523.727 236.004C524.557 236.306 525.325 236.794 525.986 237.439C526.646 238.083 527.187 238.872 527.575 239.757Z" fill="#0F5BEE"/>
<path d="M627.787 557.387C627.967 558.429 627.943 559.502 627.718 560.532C627.493 561.561 627.071 562.522 626.483 563.347C624.495 565.772 616.931 573.379 616.214 575.026C615.497 576.674 614.486 581.171 616.214 582.726C617.942 584.281 621.3 584.466 625.407 582.726C631.098 579.765 636.429 575.982 641.267 571.473C643.093 569.214 641.267 546.023 641.267 546.023C641.267 546.023 630.656 543.08 627.086 546.023L627.787 557.387Z" fill="#F96156"/>
<path d="M615.399 578.191C615.198 578.957 615.168 579.768 615.314 580.551C615.459 581.333 615.774 582.062 616.23 582.67C617.958 584.225 621.316 584.41 625.424 582.67C631.114 579.709 636.445 575.927 641.284 571.417C641.914 569.769 642.182 567.971 642.066 566.179C635.187 573.638 620.648 586.076 615.399 578.191Z" fill="#391A3A"/>
<path d="M632.139 566.216C631.508 565.14 630.629 564.281 629.596 563.736C628.387 563.269 627.1 563.117 625.831 563.292C624.788 563.292 624.788 565.142 625.831 565.142C626.729 564.92 627.664 564.99 628.529 565.343C629.394 565.697 630.154 566.32 630.721 567.141C631.406 568.085 632.775 567.16 632.139 566.216Z" fill="#391A3A"/>
<path d="M629.776 569.418C628.938 568.294 627.852 567.444 626.628 566.956C625.404 566.468 624.088 566.359 622.816 566.642C621.789 566.882 622.229 568.659 623.256 568.493C624.25 568.3 625.272 568.413 626.215 568.82C627.158 569.227 627.987 569.913 628.618 570.806C629.385 571.602 630.542 570.288 629.776 569.418Z" fill="#391A3A"/>
<path d="M652.954 571.584C653.134 572.625 653.11 573.698 652.885 574.728C652.66 575.758 652.238 576.719 651.65 577.543C649.662 579.968 642.099 587.575 641.381 589.222C640.664 590.87 639.654 595.367 641.381 596.922C643.109 598.477 646.467 598.662 650.575 596.922C656.265 593.961 661.596 590.178 666.434 585.669C668.26 583.411 666.434 560.219 666.434 560.219C666.434 560.219 655.823 557.276 652.253 560.219L652.954 571.584Z" fill="#F96156"/>
<path d="M640.566 592.369C640.365 593.135 640.336 593.946 640.481 594.728C640.626 595.511 640.941 596.239 641.398 596.848C643.125 598.403 646.483 598.588 650.591 596.848C656.282 593.887 661.612 590.104 666.451 585.595C667.097 583.938 667.377 582.127 667.266 580.32C660.355 587.816 645.815 600.272 640.566 592.369Z" fill="#391A3A"/>
<path d="M657.306 580.412C656.676 579.336 655.796 578.478 654.764 577.932C653.554 577.465 652.267 577.313 650.998 577.488C649.955 577.488 649.955 579.339 650.998 579.339C651.896 579.116 652.832 579.186 653.697 579.539C654.561 579.893 655.321 580.516 655.888 581.338C656.524 582.282 657.942 581.356 657.306 580.412Z" fill="#391A3A"/>
<path d="M654.992 583.614C654.154 582.49 653.068 581.64 651.844 581.152C650.621 580.664 649.305 580.555 648.032 580.838C647.005 581.079 647.445 582.855 648.472 582.689C649.466 582.496 650.488 582.61 651.431 583.016C652.374 583.423 653.204 584.109 653.835 585.002C654.552 585.872 655.709 584.484 654.992 583.614Z" fill="#391A3A"/>
<path d="M629.922 413.629C624.251 428.364 621.125 444.198 620.713 460.272C620.354 485.777 623.011 554.315 623.011 554.315C623.011 554.315 629.238 561.108 642.914 558.72V463.622C642.914 463.622 647.706 465.565 647.706 469.655C647.706 473.746 652.074 570.973 652.074 570.973C652.074 570.973 654.519 576.137 672.417 568.252C672.417 568.252 674.862 440.893 661.724 415.887" fill="#5B434D"/>
<path d="M564.201 455.274V601.864L601.349 625.999L643.305 597.866V451.258" fill="#0F5BEE"/>
<path d="M564.201 455.274L607.314 427.4L643.305 451.258L601.349 479.41L564.201 455.274Z" fill="#0F5BEE"/>
<path d="M601.349 479.41V625.999L643.305 597.866V451.258L601.349 479.41Z" fill="#0F5BEE"/>
<path opacity="0.1" d="M564.201 455.274V601.864L601.349 625.999L643.305 597.866V451.258" fill="#2E90A0"/>
<path d="M564.201 455.274L607.314 427.4L643.305 451.258L601.349 479.41L564.201 455.274Z" fill="#0F5BEE"/>
<path opacity="0.47" d="M601.349 479.41V625.999L643.305 597.866V451.258L601.349 479.41Z" fill="#2E90A0"/>
<path d="M600.631 453.96L579.637 465.306V611.896L474.746 547.467" stroke="#1B1464" stroke-width="1.015" stroke-miterlimit="10"/>
<path d="M620.599 471.654L651.895 450.795L602.164 419.034L573.068 439.912L620.599 471.654Z" fill="#5B434D"/>
<path d="M628.048 420.367C636.605 423.735 645.342 423.92 654.291 423.328C657.844 419.086 660.827 414.271 663.142 409.039C670.787 391.086 673.541 360.916 673.541 360.916C673.541 360.916 662.131 350.903 654.568 348.497C647.005 346.091 630.297 350.348 627.559 355.549C624.821 360.75 623.81 384.145 627.559 417.405C627.673 417.997 627.966 419.793 628.048 420.367Z" fill="#A5DD73"/>
<path d="M642.473 351.643C639.8 352.291 639.295 343.888 640.436 343.111C641.577 342.333 654.095 342.241 656.019 343.222C660.24 345.35 656.019 352.476 656.019 352.476" fill="#A5DD73"/>
<path d="M658.562 316.495C656.149 316.014 656.231 311.442 651.748 309.369C647.266 307.296 641.968 310.276 640.012 311.886C638.056 313.496 636.622 310.22 634.47 312.738C632.319 315.255 633.688 319.105 632.433 320.474L632.253 320.622C631.71 321.658 631.409 322.834 631.378 324.039C631.346 325.243 631.586 326.437 632.074 327.508C633.058 329.004 634.215 330.342 635.513 331.487L655.628 343.407C658.056 341.463 662.702 323.047 662.441 320.844C662.348 319.717 661.908 318.663 661.199 317.867C660.489 317.072 659.556 316.586 658.562 316.495V316.495Z" fill="#200904"/>
<path d="M636.491 323.473C635.579 324.583 638.594 346.609 644.478 347.386C650.363 348.164 657.323 339.316 657.942 336.688C658.562 334.06 658.203 320.03 655.807 318.623C653.411 317.217 642.017 316.717 636.491 323.473Z" fill="#F67770"/>
<path d="M639.246 317.124C639.246 317.124 638.089 322.251 645.13 323.214C652.172 324.176 652.661 325.972 653.492 328.766C655.122 334.041 660.012 340.168 661.642 324.343C661.724 323.584 656.654 312.738 651.178 311.886C645.701 311.035 639.246 317.124 639.246 317.124Z" fill="#200904"/>
<path d="M654.128 331.58C654.128 331.58 656.345 327.249 658.056 329.303C659.768 331.358 658.529 336.188 656.214 337.706" fill="#F67770"/>
<path d="M600.729 422.995C600.729 422.995 594.992 428.14 593.476 429.177C591.96 430.213 599.996 433.175 600.126 434.193C600.256 435.211 607.983 427.289 607.983 427.289L600.729 422.995Z" fill="#F67770"/>
<path d="M620.599 471.654L608.358 435.951L560.827 404.079L573.068 439.912L620.599 471.654Z" fill="#172D51"/>
<path d="M627.559 355.549C627.559 355.549 624.462 360.583 623.028 373.854C621.593 387.125 617.469 398.674 615.089 402.857C612.71 407.04 596.915 423.809 597.567 425.475C598.219 427.141 602.457 430.102 605.212 431.213C612.913 425.737 619.801 418.909 625.619 410.983C633.769 399.192 633.492 378.296 633.492 378.296" fill="#A5DD73"/>
<path d="M632.889 457.958C632.918 456.554 633.172 455.168 633.639 453.867C634.068 453.193 634.625 452.636 635.269 452.239C636.053 451.677 636.804 451.059 637.518 450.388L643.06 443.725L634.698 442.299C632.857 443.688 630.952 444.967 628.993 446.131C628.618 446.131 623.288 449.833 623.549 450.758C623.81 451.683 627.396 448.574 627.396 448.574C625.401 449.585 623.482 450.779 621.658 452.146C621.006 453.016 620.159 457.44 620.746 458.05C621.332 458.661 622.245 458.05 622.848 457.717C623.451 457.384 622.441 459.568 623.37 459.92C624.067 460.196 624.799 460.34 625.538 460.346C625.898 460.56 626.309 460.641 626.712 460.578C627.115 460.515 627.491 460.311 627.787 459.994C628.877 458.491 629.686 456.754 630.167 454.885C630.167 454.885 629.955 460.197 631.292 459.846C631.764 459.642 632.335 458.902 632.889 457.958Z" fill="#F67770"/>
<path d="M627.021 450.129C626.006 450.637 625.074 451.338 624.266 452.202C623.238 453.677 622.605 455.456 622.441 457.329C622.343 457.847 623.076 457.958 623.158 457.44C623.283 455.58 623.961 453.825 625.081 452.461C625.897 451.723 626.789 451.101 627.738 450.61C627.481 450.488 627.239 450.326 627.021 450.129V450.129Z" fill="#5B434D"/>
<path d="M628.993 451.073C628.175 451.74 627.421 452.503 626.744 453.349C625.636 454.959 625.521 457.884 625.114 459.809C625 460.327 625.733 460.438 625.831 459.92C626.336 457.532 626.499 454.83 628.097 453.072C628.684 452.424 629.303 451.794 629.939 451.221C629.621 451.191 629.306 451.142 628.993 451.073V451.073Z" fill="#5B434D"/>
<path d="M673.558 360.916C673.558 360.916 676.818 361.712 676.394 375.168C675.97 388.624 673.036 415.314 667.657 421.792C662.278 428.27 637.6 451.406 637.6 451.406C637.6 451.406 629.955 447.704 630.558 444.428C631.161 441.152 657.29 411.889 657.29 411.889C657.29 411.889 661.235 352.365 673.558 360.916Z" fill="#A5DD73"/>
<path d="M629.222 365.617L627.396 419.996C627.396 421.181 629.026 421.181 629.026 419.996L630.852 365.617C630.9 364.507 629.27 364.525 629.222 365.617Z" fill="#75A542"/>
<path d="M657.404 379.462L654.894 396.934C654.046 402.857 653.851 409.761 651.275 415.129C648.7 420.496 644.755 424.642 641.398 429.066L630.297 443.873C629.613 444.78 630.77 446.094 631.455 445.187L643.077 429.713C646.337 425.382 650.249 421.125 652.677 416.109C655.106 411.094 655.416 404.819 656.214 399.229L658.969 379.999C659.116 378.777 657.567 378.277 657.404 379.462Z" fill="#75A542"/>
<path d="M438.023 343.351V350.718L513.443 300.911V294.858L438.023 343.351Z" fill="#8CC63F"/>
<path d="M477.632 339.039L438.023 364.507V371.873L477.632 345.702V339.039Z" fill="#F7931E"/>
<path d="M483.19 335.466V342.037L491.682 336.429V330.006L483.19 335.466Z" fill="#00A99D"/>
<path d="M497.224 326.434V332.764L513.443 322.066V315.995L497.224 326.434Z" fill="#F15A24"/>
<path d="M473.051 360.231L438.023 382.757V390.123L473.051 366.987V360.231Z" fill="#F15A24"/>
<path d="M439.001 403.209V410.575L514.421 360.768V354.697L439.001 403.209Z" fill="#8CC63F"/>
<path d="M463.418 408.669V415.61L481.641 403.56V396.934L463.418 408.669Z" fill="#00A99D"/>
<path d="M457.86 412.241L439.001 424.364V431.731L457.86 419.274V412.241Z" fill="#F15A24"/>
<path d="M487.2 393.362V399.896L514.421 381.905V375.853L487.2 393.362Z" fill="#F7931E"/>
<path d="M501.984 402.098L439.001 442.614V449.981L501.984 408.373V402.098Z" fill="#F7931E"/>
<path d="M507.542 398.526V404.708L514.421 400.155V394.102L507.542 398.526Z" fill="#00A99D"/>
<path d="M439.001 464.769V472.117L514.421 422.31V416.258L439.001 464.769Z" fill="#00A99D"/>
<path d="M466.857 468.008V474.893L514.421 443.465V437.413L466.857 468.008Z" fill="#F7931E"/>
<path d="M461.299 471.58L439.001 485.906V493.273L461.299 478.558V471.58Z" fill="#F15A24"/>
<path d="M485.651 474.172L439.001 504.156V511.522L485.651 480.724V474.172Z" fill="#00A99D"/>
<path d="M491.209 470.599V477.059L514.421 461.715V455.663L491.209 470.599Z" fill="#8CC63F"/>
</g>
<defs>
<linearGradient id="paint0_linear_4_867" x1="403.8" y1="3.4447" x2="403.8" y2="675.445" gradientUnits="userSpaceOnUse">
<stop offset="0.322949" stop-color="#F41010" stop-opacity="0.71"/>
<stop offset="1" stop-color="#FD6868" stop-opacity="0.56"/>
</linearGradient>
<linearGradient id="paint1_linear_4_867" x1="295.576" y1="455.031" x2="226.711" y2="504.39" gradientUnits="userSpaceOnUse">
<stop stop-color="#D4A397"/>
<stop offset="1" stop-color="white"/>
</linearGradient>
<linearGradient id="paint2_linear_4_867" x1="273.326" y1="340.314" x2="214.826" y2="382.248" gradientUnits="userSpaceOnUse">
<stop stop-color="#D4A397"/>
<stop offset="1" stop-color="white"/>
</linearGradient>
<linearGradient id="paint3_linear_4_867" x1="489.448" y1="383.957" x2="451.836" y2="432.753" gradientUnits="userSpaceOnUse">
<stop offset="0.01" stop-color="#4D4D4D"/>
<stop offset="1" stop-color="white"/>
</linearGradient>
<linearGradient id="paint4_linear_4_867" x1="547.101" y1="376.721" x2="534.814" y2="392.664" gradientUnits="userSpaceOnUse">
<stop offset="0.01" stop-color="#4D4D4D"/>
<stop offset="1" stop-color="white"/>
</linearGradient>
<linearGradient id="paint5_linear_4_867" x1="433.49" y1="260.966" x2="407.468" y2="286.075" gradientUnits="userSpaceOnUse">
<stop stop-color="#78B46A"/>
<stop offset="0.03" stop-color="#7F3500"/>
<stop offset="1" stop-color="white"/>
</linearGradient>
<linearGradient id="paint6_linear_4_867" x1="421.673" y1="338.981" x2="384.383" y2="365.719" gradientUnits="userSpaceOnUse">
<stop stop-color="#D4A397"/>
<stop offset="1" stop-color="white"/>
</linearGradient>
<clipPath id="clip0_4_867">
<rect width="652" height="558" fill="white" transform="translate(30 59)"/>
</clipPath>
</defs>
</svg>
